<svg width="64" height="64" viewBox="0 0 64 64" fill="none" xmlns="http://www.w3.org/2000/svg">
<path opacity="0.4" d="M32.0001 58.6669C44.769 58.6669 55.1201 48.3157 55.1201 35.5469C55.1201 22.7781 44.769 12.4269 32.0001 12.4269C19.2313 12.4269 8.88013 22.7781 8.88013 35.5469C8.88013 48.3157 19.2313 58.6669 32.0001 58.6669Z" fill="#F7FAFC"/>
<path d="M32 36.6667C30.9067 36.6667 30 35.76 30 34.6667V21.3334C30 20.24 30.9067 19.3334 32 19.3334C33.0933 19.3334 34 20.24 34 21.3334V34.6667C34 35.76 33.0933 36.6667 32 36.6667Z" fill="#F7FAFC"/>
<path d="M39.7061 9.20004H24.2928C23.2261 9.20004 22.3728 8.34671 22.3728 7.28004C22.3728 6.21337 23.2261 5.33337 24.2928 5.33337H39.7061C40.7728 5.33337 41.6261 6.18671 41.6261 7.25337C41.6261 8.32004 40.7728 9.20004 39.7061 9.20004Z" fill="#F7FAFC"/>
</svg>
