<svg width="994" height="990" viewBox="0 0 994 990" fill="none" xmlns="http://www.w3.org/2000/svg">
<path d="M492.056 989.01C763.811 989.01 984.112 861.816 984.112 704.913C984.112 548.01 763.811 420.815 492.056 420.815C220.301 420.815 0 548.01 0 704.913C0 861.816 220.301 989.01 492.056 989.01Z" fill="#EBEBEB"/>
<path d="M144.112 504.044C56.846 554.429 9.21969 619.015 1.21094 684.925L526.693 988.36C640.834 983.739 752.733 956.235 839.999 905.85C940.725 847.68 988.553 770.755 983.753 694.481L510.002 421.04C378.206 418.258 244.771 445.918 144.112 504.044Z" fill="#F5F5F5"/>
<path opacity="0.02" d="M193.555 835.386L745.037 517.436C766.506 505.075 769.535 486.725 751.767 476.495C734 466.265 702.257 467.993 680.788 480.376L129.754 798.528C108.285 810.911 105.077 829.217 122.8 839.379C140.522 849.541 172.086 847.769 193.555 835.386Z" fill="black"/>
<path d="M643.01 862.396C642.113 852.211 633.476 844.606 625.063 838.751C568.666 799.425 463.722 781.119 445.147 779.168C426.572 777.216 397.005 777.238 381.458 783.206C375.125 786.106 369.815 790.853 366.226 796.823C361.448 805.796 361.739 818.135 368.963 825.179C382.423 838.168 406.337 843.664 424.553 847.949C442.769 852.234 461.478 854.342 479.403 859.659C503.81 866.905 526.087 879.849 550.068 888.441C574.05 897.033 601.665 900.533 624.301 888.98C634.575 883.753 643.997 873.949 643.01 862.396Z" fill="#EBEBEB"/>
<path d="M160.174 23.4735L139.311 35.5203C139.311 34.5781 139.491 33.6583 139.491 32.761V26.7039C139.491 15.9583 131.931 11.6062 122.621 16.9678C118.612 19.4279 115.184 22.7264 112.571 26.6366C111.045 13.1765 100.434 8.08413 87.5348 15.4199C73.6036 23.4735 62.3196 43.0355 62.3196 59.1203V68.0937C62.2583 71.7112 63.0257 75.2949 64.5629 78.5701L47.1321 88.7774C44.4059 90.5533 42.1376 92.9481 40.512 95.7665C38.8864 98.585 37.9494 101.748 37.7773 104.997C37.7773 110.942 41.95 113.364 47.1321 110.381L160.174 45.1218C162.896 43.3467 165.162 40.9552 166.787 38.1412C168.413 35.3271 169.352 32.1697 169.529 28.9248C169.529 22.9127 165.334 20.4898 160.174 23.4735Z" fill="#EBEBEB"/>
<path d="M287.395 67.3085L271.691 76.2819C271.781 75.5901 271.826 74.8932 271.826 74.1956V69.7089C271.826 61.588 266.128 58.2903 259.106 62.3507C256.087 64.2123 253.502 66.6982 251.524 69.6416C250.38 59.4568 242.371 55.6431 232.635 61.2515C222.113 67.331 213.589 82.0922 213.589 94.2512V100.981C213.521 103.702 214.074 106.402 215.204 108.878L202.125 116.438C200.067 117.775 198.354 119.579 197.126 121.704C195.898 123.828 195.189 126.213 195.059 128.664C195.059 133.151 198.222 134.99 202.125 132.725L287.372 83.3709C289.423 82.0263 291.13 80.22 292.357 78.0969C293.585 75.9738 294.297 73.5928 294.439 71.1447C294.461 66.8823 291.298 65.0652 287.395 67.3085Z" fill="#EBEBEB"/>
<path d="M145.279 767.3C145.279 767.3 152.368 732.618 144.202 701.211C136.036 669.804 118.426 646.137 97.6301 637.5C76.8343 628.863 53.1894 642.884 71.6297 663.792C90.07 684.7 126.165 711.71 128.409 768.22L145.279 767.3Z" fill="#2A5278"/>
<path opacity="0.15" d="M145.279 767.3C145.279 767.3 152.368 732.618 144.202 701.211C136.036 669.804 118.426 646.137 97.6301 637.5C76.8343 628.863 53.1894 642.884 71.6297 663.792C90.07 684.7 126.165 711.71 128.409 768.22L145.279 767.3Z" fill="black"/>
<path d="M141.847 756.577H142.094C142.252 756.569 142.407 756.529 142.55 756.459C142.692 756.39 142.82 756.293 142.924 756.174C143.029 756.055 143.108 755.916 143.158 755.766C143.208 755.615 143.228 755.456 143.216 755.298C138.729 692.485 103.441 655.357 85.3598 644.499C85.2259 644.418 85.0772 644.364 84.9223 644.34C84.7673 644.316 84.6092 644.323 84.457 644.361C84.3048 644.398 84.1615 644.466 84.0354 644.559C83.9093 644.652 83.8028 644.769 83.7222 644.903C83.6407 645.037 83.5864 645.186 83.5626 645.341C83.5388 645.496 83.5459 645.654 83.5834 645.806C83.6209 645.958 83.6882 646.102 83.7813 646.228C83.8744 646.354 83.9916 646.46 84.126 646.541C101.826 657.197 136.441 693.651 140.815 755.478C140.838 755.751 140.952 756.008 141.139 756.208C141.327 756.407 141.576 756.538 141.847 756.577V756.577Z" fill="white"/>
<path d="M41.7259 712.428C39.4825 719.427 44.3955 724.295 49.1065 728.244C52.7183 731.25 56.689 734.548 57.6761 739.169C59.6727 748.501 48.7027 757.116 50.9461 766.358C51.5898 768.259 52.6139 770.01 53.9561 771.502C55.2983 772.995 56.9304 774.199 58.7529 775.04C61.7865 776.468 64.8942 777.734 68.0628 778.831C69.5347 779.288 71.033 779.655 72.5495 779.93C77.2297 780.381 81.634 782.351 85.0898 785.539C90.1822 791.08 89.5765 799.582 91.3712 806.895V807.142C92.3061 810.682 94.0932 813.939 96.5766 816.63C99.06 819.32 102.164 821.362 105.618 822.577C109.072 823.791 112.771 824.142 116.391 823.599C120.012 823.055 123.445 821.634 126.39 819.458L152.166 801.108C162.373 787.356 159.793 762.724 143.417 754.693C139.94 752.988 135.969 751.978 133.21 749.264C129.845 745.989 129.015 740.941 128.723 736.252C128.431 731.564 128.723 726.673 126.816 722.389C124.147 716.399 117.843 712.765 111.337 711.643C103.799 710.342 96.2617 713.415 89.1054 710.813C81.9491 708.211 75.3312 704.083 67.9282 702.131C59.7848 700.112 50.4525 701.189 44.3955 707.762C43.1692 709.099 42.2572 710.693 41.7259 712.428V712.428Z" fill="#2A5278"/>
<path d="M117.238 753.549C117.172 753.375 117.055 753.226 116.901 753.122C97.7429 725.888 67.682 713.079 57.5421 710.813C57.405 710.78 57.2627 710.775 57.1236 710.798C56.9844 710.821 56.8513 710.871 56.7321 710.946C56.6128 711.022 56.5099 711.12 56.4294 711.236C56.3489 711.352 56.2925 711.482 56.2634 711.62C56.2305 711.756 56.2255 711.897 56.2487 712.035C56.2719 712.172 56.3228 712.304 56.3983 712.421C56.4738 712.539 56.5723 712.64 56.6879 712.718C56.8036 712.796 56.9339 712.85 57.071 712.877C66.695 715.12 94.6022 726.942 113.379 751.866C105.727 749.286 97.6243 748.315 89.5793 749.014C81.5343 749.713 73.7204 752.066 66.6277 755.927C66.3911 756.082 66.2254 756.325 66.1666 756.602C66.1078 756.88 66.1606 757.169 66.3136 757.407C66.4088 757.549 66.535 757.667 66.6828 757.753C66.8305 757.838 66.9958 757.889 67.1661 757.901C67.3804 757.897 67.5897 757.835 67.7718 757.721C75.0423 753.78 83.0877 751.478 91.3427 750.979C99.5977 750.479 107.862 751.792 115.555 754.827C126.747 770.849 132.359 790.106 131.528 809.632C131.515 809.899 131.606 810.16 131.782 810.361C131.958 810.561 132.204 810.686 132.47 810.709V810.709C132.61 810.715 132.75 810.693 132.882 810.644C133.014 810.595 133.134 810.521 133.237 810.424C133.339 810.328 133.421 810.213 133.478 810.084C133.535 809.956 133.566 809.818 133.569 809.677C134.447 789.681 128.707 769.953 117.238 753.549V753.549Z" fill="white"/>
<path d="M757.691 490.673V88.4857C757.689 82.1875 756.029 76.0008 752.879 70.5471C749.729 65.0933 745.199 60.5644 739.745 57.4153L648.62 4.80882C643.163 1.65851 636.974 0 630.673 0C624.372 0 618.183 1.65851 612.726 4.80882L230.011 225.779C224.553 228.924 220.02 233.45 216.865 238.902L125.74 396.744C122.593 402.201 120.937 408.391 120.939 414.691V816.856C120.939 822.173 124.439 827.467 131.438 831.505C145.459 839.603 168.184 839.603 182.205 831.505C189.227 827.467 192.727 822.173 192.727 816.856V424.27L274.227 283.096L630.673 77.3363L685.904 109.214V490.583C685.904 495.9 689.404 501.217 696.425 505.255C710.446 513.353 733.172 513.353 747.192 505.255C754.214 501.194 757.714 495.9 757.691 490.583V490.673Z" fill="#455A64"/>
<path d="M192.726 424.315C192.726 424.315 181.285 408.611 147.052 405.359C147.052 405.359 171.415 398.629 198.2 414.826L192.726 424.315Z" fill="#37474F"/>
<path d="M274.227 283.141C274.227 283.141 277.099 264.297 256.505 248.279C256.505 248.279 275.439 254 281.832 278.744L274.227 283.141Z" fill="#37474F"/>
<path d="M630.673 77.3362C637.403 70.4716 642.944 52.8613 641.553 37.0681C641.553 37.0681 649.517 53.6689 637.829 81.464L630.673 77.3362Z" fill="#37474F"/>
<path d="M685.904 109.214C704.3 109.955 722.426 103.067 730.951 90.729C730.951 90.729 723.727 115.608 685.904 118.098V109.214Z" fill="#37474F"/>
<path d="M549.912 123.953V63.7416C549.912 60.6458 547.669 59.3895 545.067 60.9374L317.838 192.106C316.428 193.031 315.255 194.274 314.413 195.735C313.571 197.196 313.085 198.835 312.992 200.519V260.752L549.912 123.953Z" fill="#37474F"/>
<path d="M554.421 50.0796C553.868 49.8213 553.256 49.7162 552.648 49.7754C552.04 49.8346 551.459 50.0559 550.967 50.4161L323.805 181.585C322.388 182.504 321.209 183.746 320.363 185.208C319.517 186.67 319.029 188.311 318.937 189.997V273.495C318.873 274.099 318.972 274.709 319.225 275.262C319.477 275.814 319.874 276.289 320.373 276.635L329.481 281.885C330.03 282.144 330.639 282.249 331.243 282.19C331.848 282.13 332.425 281.909 332.913 281.548L560.074 150.357C561.491 149.438 562.67 148.196 563.516 146.734C564.362 145.272 564.851 143.631 564.943 141.945V58.4698C565.006 57.8601 564.904 57.2446 564.648 56.688C564.391 56.1313 563.989 55.6542 563.484 55.3066L554.421 50.0796Z" fill="#2A5278"/>
<path d="M332.778 186.857L560.074 55.6656C562.766 54.1177 564.942 55.374 564.942 58.4698V141.945C564.851 143.631 564.362 145.272 563.516 146.734C562.67 148.196 561.491 149.438 560.074 150.357L332.778 281.548C330.086 283.096 327.91 281.84 327.91 278.744V195.269C328.002 193.583 328.49 191.942 329.336 190.48C330.182 189.018 331.362 187.776 332.778 186.857V186.857Z" fill="#2A5278"/>
<path opacity="0.15" d="M328 278.744C327.956 279.292 328.036 279.843 328.234 280.355C328.432 280.868 328.743 281.329 329.144 281.705L320.305 276.613C319.81 276.264 319.418 275.788 319.169 275.236C318.921 274.683 318.825 274.074 318.892 273.472V189.997C318.947 188.307 319.442 186.66 320.327 185.219L329.435 190.468C328.549 191.917 328.054 193.571 328 195.269V278.744Z" fill="black"/>
<path opacity="0.4" d="M554.421 50.0796L563.238 55.1272C562.708 54.9658 562.148 54.9264 561.6 55.0118C561.052 55.0973 560.531 55.3054 560.075 55.6207L332.779 186.857C331.345 187.747 330.163 188.991 329.346 190.468L320.328 185.241C321.144 183.757 322.325 182.506 323.76 181.607L550.967 50.3937C551.464 50.0414 552.045 49.8268 552.652 49.7716C553.259 49.7164 553.869 49.8227 554.421 50.0796V50.0796Z" fill="white"/>
<path d="M391.263 174.855C391.388 174.738 391.552 174.673 391.723 174.673C391.894 174.673 392.058 174.738 392.183 174.855C392.458 175.187 392.594 175.613 392.564 176.044V183.918C392.555 184.485 392.425 185.043 392.183 185.555C391.993 186.012 391.673 186.402 391.263 186.677L376.838 195V205.162L390.298 197.4C390.427 197.293 390.59 197.234 390.758 197.234C390.926 197.234 391.089 197.293 391.218 197.4C391.357 197.563 391.463 197.752 391.528 197.956C391.594 198.161 391.618 198.376 391.599 198.589V206.441C391.594 207.008 391.463 207.567 391.218 208.079C391.028 208.535 390.708 208.925 390.298 209.2L376.838 216.962V233.002C376.841 233.563 376.71 234.117 376.457 234.617C376.275 235.084 375.954 235.483 375.537 235.762L369.233 239.396C369.104 239.503 368.941 239.562 368.773 239.562C368.605 239.562 368.443 239.503 368.313 239.396C368.034 239.065 367.897 238.638 367.932 238.207V190.311C367.943 189.745 368.073 189.187 368.313 188.674C368.51 188.221 368.828 187.833 369.233 187.552L391.263 174.855Z" fill="#FAFAFA"/>
<path d="M398.981 222.346C398.854 222.458 398.69 222.52 398.521 222.52C398.351 222.52 398.188 222.458 398.061 222.346C397.918 222.186 397.811 221.997 397.745 221.792C397.679 221.587 397.657 221.371 397.679 221.157V173.15C397.677 172.582 397.807 172.021 398.061 171.512C398.243 171.052 398.565 170.659 398.981 170.39L405.284 166.756C405.413 166.649 405.576 166.59 405.744 166.59C405.912 166.59 406.075 166.649 406.204 166.756C406.479 167.089 406.616 167.515 406.585 167.945V215.886C406.58 216.453 406.449 217.012 406.204 217.523C406.014 217.979 405.695 218.369 405.284 218.645L398.981 222.346Z" fill="#FAFAFA"/>
<path d="M435.277 201.393C435.079 201.529 434.845 201.602 434.604 201.602C434.364 201.602 434.129 201.529 433.931 201.393C433.67 201.217 433.448 200.988 433.281 200.72L422.243 181.719V206.8C422.246 207.368 422.115 207.929 421.862 208.438C421.68 208.898 421.358 209.29 420.942 209.559L414.639 213.193C414.514 213.31 414.349 213.375 414.179 213.375C414.008 213.375 413.843 213.31 413.719 213.193C413.44 212.863 413.302 212.436 413.337 212.004V164.109C413.346 163.542 413.476 162.984 413.719 162.471C413.901 162.011 414.223 161.619 414.639 161.35L419.641 158.456C420.202 158.142 420.628 158.097 420.965 158.456C421.224 158.625 421.446 158.847 421.615 159.106L432.653 178.108V152.937C432.659 152.375 432.797 151.821 433.056 151.322C433.231 150.864 433.545 150.472 433.954 150.2L440.28 146.544C440.409 146.436 440.572 146.377 440.74 146.377C440.908 146.377 441.071 146.436 441.2 146.544C441.479 146.874 441.616 147.301 441.581 147.733V195.673C441.57 196.24 441.44 196.797 441.2 197.311C441.004 197.763 440.685 198.151 440.28 198.432L435.277 201.393Z" fill="#FAFAFA"/>
<path d="M449.635 193.093C449.508 193.205 449.344 193.267 449.175 193.267C449.006 193.267 448.842 193.205 448.715 193.093C448.572 192.932 448.465 192.743 448.399 192.539C448.334 192.334 448.311 192.118 448.334 191.904V143.896C448.333 143.329 448.464 142.768 448.715 142.259C448.897 141.798 449.219 141.406 449.635 141.137L455.939 137.503C456.068 137.395 456.23 137.336 456.399 137.336C456.567 137.336 456.729 137.395 456.858 137.503C456.998 137.666 457.103 137.855 457.169 138.059C457.234 138.263 457.258 138.478 457.24 138.692V186.632C457.231 187.192 457.101 187.743 456.858 188.247C456.676 188.708 456.355 189.1 455.939 189.369L449.635 193.093Z" fill="#FAFAFA"/>
<path d="M476.532 124.873C478.235 123.793 480.176 123.146 482.186 122.988C483.741 122.856 485.302 123.184 486.672 123.931C487.905 124.632 488.916 125.666 489.589 126.914C490.295 128.249 490.672 129.734 490.688 131.244C490.694 131.704 490.586 132.159 490.374 132.568C490.241 132.932 489.998 133.245 489.678 133.465L483.375 137.099C483.056 137.33 482.669 137.449 482.275 137.436C481.97 137.372 481.684 137.233 481.445 137.032C481.333 137.032 481.199 136.785 480.974 136.561C480.734 136.304 480.433 136.111 480.099 136C479.616 135.835 479.099 135.797 478.596 135.888C477.848 136.018 477.131 136.292 476.488 136.695C475.866 137.052 475.274 137.457 474.715 137.907C474.173 138.341 473.677 138.829 473.235 139.365C472.783 139.886 472.419 140.477 472.158 141.115C471.887 141.784 471.749 142.501 471.754 143.223C471.708 143.791 471.867 144.356 472.203 144.816C472.642 145.16 473.194 145.328 473.751 145.287C474.721 145.256 475.685 145.113 476.622 144.861L481.109 143.717C482.606 143.267 484.167 143.062 485.73 143.111C486.939 143.149 488.1 143.592 489.028 144.368C490.004 145.242 490.692 146.392 491.002 147.665C491.492 149.516 491.711 151.428 491.653 153.341C491.659 155.85 491.288 158.345 490.553 160.744C489.812 163.156 488.764 165.463 487.435 167.609C486.121 169.787 484.539 171.792 482.724 173.576C480.931 175.315 478.926 176.823 476.757 178.063C474.944 179.189 472.908 179.909 470.789 180.171C469.191 180.362 467.572 180.065 466.146 179.319C464.822 178.604 463.749 177.5 463.072 176.156C462.303 174.641 461.911 172.964 461.928 171.265C461.926 170.808 462.025 170.356 462.22 169.942C462.368 169.58 462.618 169.269 462.938 169.044L469.242 165.41C469.55 165.189 469.917 165.065 470.296 165.051C470.585 165.085 470.857 165.202 471.081 165.388L471.664 166.016C471.946 166.345 472.299 166.605 472.696 166.779C473.208 167.016 473.772 167.117 474.334 167.07C475.198 166.954 476.025 166.647 476.757 166.173C478.344 165.299 479.783 164.178 481.019 162.853C482.106 161.779 482.727 160.32 482.747 158.792C482.78 158.512 482.74 158.228 482.63 157.968C482.52 157.708 482.343 157.482 482.118 157.312C481.537 157.019 480.877 156.917 480.234 157.02C479.148 157.131 478.074 157.342 477.026 157.648C475.725 158.007 474.199 158.388 472.427 158.815C469.107 159.645 466.707 159.219 465.181 157.558C463.656 155.898 462.938 152.915 462.938 148.585C462.937 146.31 463.247 144.046 463.858 141.855C464.503 139.512 465.422 137.254 466.594 135.125C467.782 132.954 469.228 130.936 470.902 129.113C472.555 127.425 474.453 125.996 476.532 124.873Z" fill="#FAFAFA"/>
<path d="M523.71 98.3789C523.839 98.2712 524.002 98.2123 524.17 98.2123C524.338 98.2123 524.501 98.2712 524.63 98.3789C524.769 98.5419 524.874 98.7309 524.94 98.9351C525.005 99.1392 525.03 99.3543 525.011 99.5679V147.553C525.005 148.12 524.875 148.679 524.63 149.191C524.447 149.651 524.126 150.043 523.71 150.312L517.406 153.969C517.279 154.081 517.116 154.143 516.946 154.143C516.777 154.143 516.613 154.081 516.486 153.969C516.344 153.808 516.236 153.619 516.17 153.415C516.105 153.21 516.082 152.994 516.105 152.78V134.519L505.516 140.711V158.882C505.513 159.452 505.375 160.013 505.113 160.52C504.93 160.98 504.609 161.372 504.193 161.641L497.889 165.298C497.758 165.402 497.596 165.458 497.429 165.458C497.262 165.458 497.1 165.402 496.969 165.298C496.825 165.134 496.716 164.941 496.651 164.733C496.585 164.524 496.564 164.304 496.588 164.087V116.101C496.597 115.535 496.727 114.976 496.969 114.464C497.159 114.008 497.479 113.617 497.889 113.342L504.193 109.708C504.32 109.596 504.483 109.534 504.653 109.534C504.822 109.534 504.986 109.596 505.113 109.708C505.257 109.868 505.367 110.056 505.437 110.261C505.506 110.465 505.533 110.682 505.516 110.897V128.844L516.217 122.652V104.705C516.217 104.137 516.347 103.577 516.599 103.068C516.781 102.607 517.102 102.215 517.518 101.946L523.71 98.3789Z" fill="#FAFAFA"/>
<path d="M497.621 198.701C497.071 198.433 496.459 198.32 495.849 198.375C495.24 198.431 494.658 198.652 494.166 199.016L400.91 252.856C399.496 253.777 398.32 255.019 397.478 256.481C396.636 257.943 396.152 259.583 396.064 261.268V302.681C396.003 303.288 396.104 303.9 396.356 304.456C396.608 305.011 397.003 305.49 397.5 305.844L406.608 311.093C407.158 311.347 407.767 311.45 408.37 311.391C408.973 311.332 409.55 311.113 410.04 310.757L503.296 256.916C504.713 255.997 505.892 254.755 506.738 253.293C507.584 251.831 508.073 250.19 508.164 248.504V207.002C508.231 206.392 508.13 205.776 507.873 205.219C507.616 204.661 507.213 204.185 506.706 203.839L497.621 198.701Z" fill="#455A64"/>
<path d="M405.172 307.908C405.125 308.454 405.202 309.003 405.396 309.516C405.59 310.029 405.897 310.491 406.294 310.869L397.478 305.776C396.977 305.432 396.579 304.957 396.326 304.404C396.073 303.851 395.975 303.24 396.042 302.636V261.224C396.097 259.533 396.592 257.886 397.478 256.445L406.586 261.695C405.716 263.15 405.23 264.801 405.172 266.495V307.908Z" fill="#263238"/>
<path d="M497.621 198.701L506.437 203.794C505.907 203.632 505.347 203.593 504.799 203.679C504.251 203.764 503.73 203.972 503.274 204.287L410.018 258.128C408.594 259.031 407.415 260.272 406.586 261.74L397.478 256.49C398.295 255 399.485 253.747 400.932 252.856L494.166 199.015C494.663 198.663 495.244 198.449 495.851 198.393C496.458 198.338 497.068 198.445 497.621 198.701V198.701Z" fill="#37474F"/>
<path d="M443.551 257.471V260.32C443.566 260.469 443.566 260.62 443.551 260.769C443.521 260.881 443.458 260.983 443.372 261.06C443.234 261.219 443.067 261.349 442.878 261.442L441.51 262.249C441.196 262.429 441.016 262.474 440.927 262.429C440.837 262.384 440.927 262.205 440.927 261.935V258.795C440.927 258.795 440.927 258.66 440.927 258.548C440.974 258.432 441.051 258.332 441.151 258.256C441.275 258.145 441.41 258.047 441.555 257.965L442.923 257.179C443.26 257 443.439 256.933 443.529 257C443.619 257.067 443.551 257.224 443.551 257.471ZM443.551 274.521V277.37C443.566 277.519 443.566 277.669 443.551 277.818C443.521 277.931 443.458 278.032 443.372 278.11C443.234 278.269 443.067 278.398 442.878 278.491L441.51 279.299C441.196 279.478 441.016 279.523 440.927 279.478C440.837 279.433 440.927 279.254 440.927 278.985V275.844C440.927 275.844 440.927 275.71 440.927 275.597C440.979 275.485 441.056 275.385 441.151 275.306C441.275 275.195 441.41 275.097 441.555 275.014L442.923 274.229C443.26 274.049 443.439 273.982 443.529 274.049C443.619 274.117 443.551 274.274 443.551 274.521Z" fill="#2A5278"/>
<path d="M452.793 245.043C453.56 244.553 454.425 244.238 455.328 244.123C455.928 244.034 456.541 244.161 457.055 244.482C457.502 244.801 457.864 245.225 458.11 245.716C458.378 246.207 458.567 246.737 458.671 247.286C458.759 247.79 458.804 248.3 458.805 248.812V261.689C458.802 262.252 458.757 262.814 458.671 263.371C458.554 264.135 458.366 264.886 458.11 265.614C457.838 266.469 457.485 267.295 457.055 268.082C456.577 268.9 455.996 269.654 455.328 270.326C454.587 271.12 453.733 271.8 452.793 272.345C452.205 272.694 451.571 272.959 450.909 273.13C450.429 273.237 449.931 273.237 449.451 273.13C449.053 273.057 448.678 272.896 448.351 272.659C448.045 272.417 447.787 272.12 447.589 271.784C447.401 271.424 447.243 271.048 447.117 270.662C447.008 270.287 446.925 269.905 446.871 269.518C446.849 269.167 446.849 268.815 446.871 268.464V255.564C446.85 255.191 446.85 254.816 446.871 254.443C446.871 254.016 447.005 253.545 447.117 252.984C447.23 252.424 447.409 251.885 447.589 251.324C447.804 250.725 448.058 250.14 448.351 249.575C448.67 248.97 449.038 248.392 449.451 247.847C449.887 247.266 450.375 246.725 450.909 246.232C451.491 245.767 452.123 245.369 452.793 245.043V245.043ZM452.793 270.999C453.307 270.702 453.77 270.323 454.162 269.877C454.536 269.449 454.853 268.974 455.104 268.464C455.331 267.971 455.518 267.461 455.665 266.938C455.803 266.469 455.9 265.988 455.956 265.502C455.988 265.099 455.988 264.694 455.956 264.291V249.418C455.99 249.052 455.99 248.684 455.956 248.318C455.912 247.94 455.814 247.57 455.665 247.219C455.535 246.889 455.336 246.591 455.081 246.344C454.828 246.12 454.5 246 454.162 246.008C453.675 246.039 453.204 246.193 452.793 246.456C452.282 246.748 451.826 247.127 451.447 247.578C451.072 248.006 450.755 248.481 450.505 248.991C450.268 249.48 450.08 249.991 449.944 250.517C449.806 250.986 449.708 251.466 449.652 251.953C449.652 252.379 449.652 252.783 449.652 253.141V268.037C449.629 268.403 449.629 268.771 449.652 269.137C449.71 269.512 449.808 269.881 449.944 270.236C450.069 270.563 450.26 270.861 450.505 271.111C450.772 271.324 451.106 271.435 451.447 271.425C451.928 271.417 452.396 271.269 452.793 270.999V270.999Z" fill="#2A5278"/>
<path d="M461.587 241.297L466.208 237.214V264.246L463.426 265.839V242.979C463.459 242.63 463.389 242.279 463.225 241.97C463.09 241.813 462.911 241.79 462.664 241.97C462.417 242.149 462.237 242.284 461.587 242.845V241.297Z" fill="#2A5278"/>
<path d="M472.198 240.938V243.787C472.213 243.928 472.213 244.071 472.198 244.213C472.169 244.332 472.107 244.441 472.019 244.527C471.881 244.686 471.714 244.815 471.525 244.908L470.157 245.693C469.843 245.873 469.663 245.94 469.574 245.895C469.484 245.85 469.461 245.671 469.461 245.379V242.261C469.457 242.179 469.457 242.097 469.461 242.014C469.509 241.899 469.586 241.798 469.686 241.723C469.804 241.605 469.94 241.506 470.09 241.431L471.458 240.623C471.794 240.444 471.974 240.399 472.064 240.444C472.153 240.489 472.198 240.668 472.198 240.938ZM472.198 257.987V260.836C472.213 260.978 472.213 261.121 472.198 261.262C472.169 261.382 472.107 261.491 472.019 261.576C471.876 261.729 471.709 261.858 471.525 261.958L470.157 262.743C469.843 262.922 469.663 262.99 469.574 262.945C469.484 262.9 469.461 262.72 469.461 262.429V259.243C469.457 259.161 469.457 259.079 469.461 258.997C469.509 258.881 469.586 258.78 469.686 258.705C469.804 258.587 469.94 258.488 470.09 258.413L471.458 257.606C471.794 257.426 471.974 257.381 472.064 257.426C472.153 257.471 472.198 257.718 472.198 257.987Z" fill="#2A5278"/>
<path d="M481.441 228.487C482.213 228.012 483.077 227.706 483.976 227.59C484.577 227.486 485.194 227.614 485.703 227.949C486.156 228.262 486.519 228.687 486.758 229.182C487.03 229.672 487.219 230.202 487.319 230.753C487.407 231.257 487.452 231.767 487.453 232.278V245.155C487.448 245.718 487.403 246.281 487.319 246.838C487.202 247.601 487.014 248.352 486.758 249.081C486.486 249.928 486.133 250.747 485.703 251.526C485.234 252.391 484.654 253.191 483.976 253.904C483.234 254.691 482.38 255.364 481.441 255.901C480.854 256.257 480.22 256.529 479.557 256.708C479.075 256.804 478.58 256.804 478.099 256.708C477.7 256.628 477.324 256.46 476.999 256.215C476.699 255.976 476.441 255.687 476.237 255.362C476.049 255.002 475.891 254.627 475.765 254.241C475.653 253.859 475.571 253.469 475.519 253.074C475.496 252.723 475.496 252.371 475.519 252.02V239.143C475.499 238.762 475.499 238.38 475.519 237.999C475.519 237.595 475.653 237.101 475.765 236.563C475.878 236.025 476.057 235.464 476.237 234.903C476.679 233.65 477.306 232.47 478.099 231.403C478.535 230.829 479.023 230.296 479.557 229.811C480.138 229.307 480.77 228.863 481.441 228.487V228.487ZM481.441 254.465C481.965 254.173 482.429 253.785 482.81 253.321C483.194 252.901 483.512 252.424 483.752 251.908C483.992 251.42 484.18 250.909 484.313 250.382C484.453 249.913 484.55 249.433 484.604 248.946C484.637 248.551 484.637 248.153 484.604 247.757V232.884C484.638 232.511 484.638 232.135 484.604 231.762C484.56 231.391 484.461 231.028 484.313 230.686C484.19 230.352 483.99 230.052 483.729 229.811C483.606 229.696 483.462 229.607 483.304 229.549C483.146 229.491 482.978 229.466 482.81 229.474C482.324 229.495 481.853 229.642 481.441 229.9C480.929 230.2 480.473 230.587 480.095 231.044C479.715 231.468 479.398 231.944 479.153 232.458C478.72 233.396 478.433 234.394 478.3 235.419C478.279 235.815 478.279 236.212 478.3 236.608V251.481C478.277 251.855 478.277 252.229 478.3 252.603C478.358 252.979 478.456 253.347 478.592 253.702C478.723 254.026 478.913 254.323 479.153 254.577C479.42 254.791 479.754 254.902 480.095 254.891C480.574 254.873 481.039 254.725 481.441 254.465Z" fill="#2A5278"/>
<path d="M497.413 219.028C498.185 218.553 499.049 218.247 499.948 218.131C500.548 218.027 501.166 218.155 501.675 218.49C502.127 218.803 502.49 219.228 502.73 219.724C503.001 220.213 503.191 220.743 503.29 221.294C503.379 221.798 503.424 222.308 503.425 222.819V235.696C503.42 236.259 503.375 236.822 503.29 237.379C503.174 238.142 502.986 238.893 502.73 239.622C502.457 240.469 502.104 241.288 501.675 242.067C501.206 242.932 500.625 243.732 499.948 244.445C499.206 245.232 498.352 245.905 497.413 246.442C496.826 246.798 496.191 247.07 495.528 247.249C495.047 247.346 494.551 247.346 494.07 247.249C493.671 247.169 493.296 247.001 492.971 246.756C492.671 246.517 492.413 246.229 492.208 245.903C492.02 245.543 491.863 245.168 491.737 244.782C491.625 244.4 491.543 244.01 491.49 243.615C491.468 243.264 491.468 242.912 491.49 242.561V229.684C491.471 229.303 491.471 228.921 491.49 228.54C491.49 228.136 491.625 227.643 491.737 227.104C491.849 226.566 492.029 226.005 492.208 225.444C492.65 224.191 493.278 223.011 494.07 221.944C494.507 221.37 494.995 220.837 495.528 220.352C496.11 219.848 496.741 219.404 497.413 219.028V219.028ZM497.413 245.006C497.937 244.714 498.401 244.326 498.781 243.862C499.166 243.442 499.484 242.965 499.723 242.449C499.964 241.961 500.152 241.45 500.284 240.923C500.424 240.454 500.522 239.974 500.576 239.487C500.608 239.092 500.608 238.694 500.576 238.298V223.425C500.61 223.052 500.61 222.677 500.576 222.303C500.531 221.932 500.433 221.57 500.284 221.227C500.162 220.893 499.962 220.593 499.701 220.352C499.578 220.237 499.433 220.148 499.275 220.09C499.117 220.032 498.949 220.007 498.781 220.015C498.296 220.036 497.824 220.183 497.413 220.441C496.901 220.741 496.445 221.128 496.067 221.586C495.687 222.009 495.37 222.485 495.125 222.999C494.692 223.937 494.404 224.935 494.272 225.96C494.251 226.356 494.251 226.753 494.272 227.149V242.022C494.249 242.396 494.249 242.771 494.272 243.144C494.33 243.52 494.428 243.888 494.564 244.243C494.695 244.567 494.885 244.864 495.125 245.118C495.391 245.332 495.725 245.443 496.067 245.432C496.546 245.414 497.01 245.266 497.413 245.006Z" fill="#2A5278"/>
<path d="M415.628 267.865C416.4 267.391 417.264 267.085 418.163 266.968C418.763 266.864 419.381 266.992 419.89 267.327C420.342 267.64 420.705 268.065 420.944 268.561C421.216 269.05 421.406 269.581 421.505 270.131C421.593 270.635 421.638 271.145 421.64 271.657V284.534C421.634 285.097 421.589 285.659 421.505 286.216C421.389 286.98 421.201 287.731 420.944 288.459C420.672 289.306 420.319 290.125 419.89 290.905C419.421 291.77 418.84 292.569 418.163 293.283C417.421 294.07 416.567 294.742 415.628 295.279C415.041 295.635 414.406 295.907 413.743 296.087C413.262 296.183 412.766 296.183 412.285 296.087C411.886 296.007 411.511 295.838 411.186 295.593C410.885 295.354 410.627 295.066 410.423 294.741C410.235 294.381 410.078 294.005 409.952 293.619C409.84 293.237 409.757 292.847 409.705 292.453C409.683 292.101 409.683 291.749 409.705 291.398V278.521C409.685 278.14 409.685 277.758 409.705 277.377C409.705 276.973 409.84 276.48 409.952 275.941C410.064 275.403 410.244 274.842 410.423 274.281C410.865 273.028 411.493 271.849 412.285 270.782C412.722 270.208 413.21 269.675 413.743 269.189C414.325 268.685 414.956 268.242 415.628 267.865V267.865ZM415.628 293.843C416.152 293.551 416.616 293.163 416.996 292.699C417.381 292.279 417.699 291.803 417.938 291.286C418.179 290.799 418.367 290.287 418.499 289.761C418.639 289.292 418.737 288.811 418.791 288.325C418.823 287.929 418.823 287.531 418.791 287.136V272.262C418.825 271.889 418.825 271.514 418.791 271.141C418.746 270.77 418.648 270.407 418.499 270.064C418.377 269.73 418.177 269.43 417.916 269.189C417.793 269.074 417.648 268.985 417.49 268.927C417.332 268.87 417.164 268.844 416.996 268.852C416.511 268.874 416.039 269.021 415.628 269.279C415.115 269.578 414.66 269.966 414.282 270.423C413.902 270.847 413.584 271.323 413.339 271.836C412.907 272.774 412.619 273.773 412.487 274.797C412.466 275.193 412.466 275.59 412.487 275.986V290.86C412.464 291.233 412.464 291.608 412.487 291.981C412.545 292.357 412.642 292.726 412.779 293.081C412.909 293.405 413.1 293.701 413.339 293.956C413.606 294.169 413.94 294.28 414.282 294.27C414.76 294.251 415.225 294.104 415.628 293.843Z" fill="#2A5278"/>
<path d="M431.599 258.406C432.371 257.932 433.235 257.626 434.134 257.509C434.735 257.405 435.352 257.534 435.862 257.868C436.314 258.181 436.677 258.607 436.916 259.102C437.188 259.591 437.377 260.122 437.477 260.672C437.565 261.176 437.61 261.686 437.611 262.198V275.075C437.606 275.638 437.561 276.2 437.477 276.757C437.36 277.521 437.173 278.272 436.916 279C436.644 279.847 436.291 280.666 435.862 281.446C435.393 282.311 434.812 283.11 434.134 283.824C433.393 284.611 432.538 285.284 431.599 285.82C431.012 286.177 430.378 286.448 429.715 286.628C429.234 286.724 428.738 286.724 428.257 286.628C427.858 286.548 427.482 286.379 427.157 286.134C426.857 285.895 426.599 285.607 426.395 285.282C426.207 284.922 426.049 284.546 425.924 284.16C425.812 283.778 425.729 283.388 425.677 282.994C425.655 282.642 425.655 282.29 425.677 281.939V269.062C425.657 268.681 425.657 268.299 425.677 267.918C425.677 267.514 425.811 267.021 425.924 266.483C426.036 265.944 426.215 265.383 426.395 264.822C426.837 263.569 427.464 262.39 428.257 261.323C428.693 260.749 429.182 260.216 429.715 259.73C430.297 259.226 430.928 258.783 431.599 258.406V258.406ZM431.599 284.384C432.123 284.092 432.587 283.704 432.968 283.24C433.353 282.82 433.67 282.344 433.91 281.827C434.15 281.34 434.338 280.828 434.471 280.302C434.611 279.833 434.709 279.352 434.762 278.866C434.795 278.47 434.795 278.073 434.762 277.677V262.803C434.797 262.43 434.797 262.055 434.762 261.682C434.718 261.311 434.62 260.948 434.471 260.605C434.348 260.271 434.149 259.971 433.888 259.73C433.765 259.615 433.62 259.526 433.462 259.469C433.304 259.411 433.136 259.385 432.968 259.394C432.482 259.415 432.011 259.562 431.599 259.82C431.087 260.119 430.632 260.507 430.253 260.964C429.873 261.388 429.556 261.864 429.311 262.377C428.878 263.315 428.591 264.314 428.459 265.338C428.438 265.735 428.438 266.131 428.459 266.527V281.401C428.436 281.774 428.436 282.149 428.459 282.522C428.516 282.898 428.614 283.267 428.75 283.622C428.881 283.946 429.071 284.242 429.311 284.497C429.578 284.71 429.912 284.821 430.253 284.811C430.732 284.792 431.197 284.645 431.599 284.384Z" fill="#2A5278"/>
<path d="M542.576 531.57C520.142 537.268 508.723 533.275 491.248 528.003C487.12 563.066 479.403 614.259 472.404 658.252C458.607 655.245 449.454 656.771 436.712 659.485C430.812 660.764 423.252 662.626 417.195 663.456C411.138 664.286 402.052 666.44 398.418 664.959C393.931 663.097 391.396 659.777 386.147 660.293C384.008 660.502 381.94 661.171 380.085 662.256C378.23 663.34 376.632 664.813 375.401 666.574C371.812 671.913 372.171 678.958 369.658 684.88C367.369 689.551 364.066 693.651 359.99 696.882C358.757 697.909 357.602 699.026 356.535 700.225C354.811 702.557 353.581 705.215 352.917 708.039C352.254 710.862 352.172 713.79 352.676 716.646C353.394 720.998 355.66 731.183 362.053 729.119C363.763 728.472 365.213 727.282 366.181 725.731C367.108 724.191 367.939 722.595 368.671 720.953C369.477 719.409 370.368 717.911 371.341 716.466C375.455 710.794 380.306 705.694 385.766 701.301C388.278 699.058 390.791 697.151 393.303 695.02C395.547 693.18 398.934 690.331 401.918 690.197C411.969 689.937 422.028 690.236 432.046 691.094C447.57 692.306 464.148 694.302 474.243 695.581C494.433 698.161 501.163 698.026 509.217 683.938C517.742 669.154 527.792 643.356 534.814 619.913C543.843 591.39 546.493 561.23 542.576 531.57V531.57Z" fill="#F28F8F"/>
<path d="M545.425 556.224C546.39 567.216 542.8 600.867 534.208 630.053L477.003 628.146L478.82 559.679L545.425 556.224Z" fill="#37474F"/>
<path d="M403.331 665.587C403.331 663.591 400.527 662.693 398.395 663.344C397.286 663.702 396.199 664.129 395.143 664.623C397.672 665.903 400.573 666.245 403.331 665.587V665.587Z" fill="#2A5278"/>
<g opacity="0.3">
<path opacity="0.3" d="M403.331 665.587C403.331 663.591 400.527 662.693 398.395 663.344C397.286 663.702 396.199 664.129 395.143 664.623C397.672 665.903 400.573 666.245 403.331 665.587V665.587Z" fill="black"/>
</g>
<path d="M377.779 711.396C381.503 706.91 394.088 695.02 398.081 692.664C402.075 690.309 405.709 691.655 404.026 687.437C402.344 683.22 400.706 677.118 398.037 676.894C395.367 676.669 389.781 679.9 383.343 686.024C378.58 691.057 374.507 696.7 371.229 702.804L377.779 711.396Z" fill="#2A5278"/>
<path opacity="0.1" d="M377.779 711.396C381.503 706.91 394.088 695.02 398.081 692.664C402.075 690.309 405.709 691.655 404.026 687.437C402.344 683.22 400.706 677.118 398.037 676.894C395.367 676.669 389.781 679.9 383.343 686.024C378.58 691.057 374.507 696.7 371.229 702.804L377.779 711.396Z" fill="black"/>
<path d="M359.16 735.737C357.365 736.365 353.798 736.455 349.693 730.801C347.346 727.217 345.863 723.137 345.361 718.882C344.859 714.627 345.351 710.314 346.799 706.282C350.388 695.783 358.016 692.216 361.201 686.72C365.329 679.698 365.217 671.667 366.249 666.372C367.482 660.203 370.915 660.136 372.552 660.203C374.19 660.271 378.542 660.719 378.542 660.719L359.16 735.737Z" fill="#EBEBEB"/>
<path d="M403.332 665.587C402.255 662.626 398.845 663.142 396.602 664.084C394.359 665.026 391.218 666.328 390.859 668.683C390.5 671.039 395.099 672.385 395.592 674.92C396.086 677.455 392.182 680.73 387.449 685.194C382.716 689.658 372.508 701.638 372.8 703.141C373.092 704.644 377.646 709.086 377.735 711.374C374.751 715.115 372.388 719.311 370.736 723.802C369.435 727.93 368.358 731.272 367.663 733C366.967 734.727 361.179 736.073 358.824 735.669C354.943 734.996 346.844 728.513 347.338 715.143C347.832 701.772 354.808 698.834 360.955 693.068C367.102 687.303 368.784 674.202 369.592 670.635C370.564 666.823 372.883 663.492 376.12 661.258C378.923 659.947 382.004 659.347 385.094 659.508C390.545 659.665 393.73 660.674 398.015 660.001C402.838 659.239 404.925 665.318 404.925 665.318C404.925 665.318 404.566 665.43 403.332 665.587Z" fill="#2A5278"/>
<path d="M361.583 732.619C360.528 730.375 359.339 727.997 358.487 728.132C357.634 728.266 352.497 729.074 350.59 728.132C348.683 727.19 347.943 724.991 347.046 722.905C345.739 717.714 345.67 712.289 346.844 707.067C349.087 699.619 352.452 697.308 357.522 691.543C362.103 686.889 364.932 680.794 365.531 674.292C366.877 665.812 367.393 662.895 370.332 660.405C369.584 660.364 368.836 660.364 368.088 660.405C366.92 661.452 366.04 662.78 365.531 664.264C364.813 666.507 363.288 679.384 361.56 682.816C359.748 686.423 357.292 689.67 354.314 692.395C351.286 695.716 347.36 698.811 345.206 707.112C343.373 714.907 344.704 723.111 348.908 729.927C352.677 735.355 355.01 735.894 355.929 736.298C357.851 736.585 359.815 736.369 361.627 735.67C362.615 735.109 362.345 734.256 361.583 732.619Z" fill="#455A64"/>
<path d="M372.845 700.382C377.085 704.442 379.059 708.211 378.924 710.095C378.646 710.958 378.075 711.696 377.309 712.182C377.309 712.182 376.771 708.615 371.23 702.804C371.167 702.274 371.295 701.739 371.591 701.295C371.887 700.851 372.331 700.527 372.845 700.382Z" fill="#455A64"/>
<path d="M383.276 705.564C382.463 701.467 380.131 697.829 376.748 695.379C376.767 694.885 376.933 694.407 377.225 694.008C377.517 693.608 377.921 693.305 378.386 693.136C381.896 695.729 384.299 699.55 385.116 703.836C385.116 703.836 384.577 705.452 383.276 705.564Z" fill="#455A64"/>
<path d="M389.444 699.731C389.983 696.68 385.586 690.489 382.827 688.514C382.786 688.236 382.802 687.953 382.875 687.681C382.948 687.409 383.075 687.156 383.249 686.935C383.424 686.714 383.641 686.532 383.889 686.398C384.136 686.265 384.408 686.183 384.689 686.159C388.403 688.971 390.939 693.066 391.8 697.645C391.8 697.645 391.262 699.798 389.444 699.731Z" fill="#455A64"/>
<path d="M395.367 694.639C395.143 692.313 394.454 690.056 393.34 688.002C392.226 685.948 390.711 684.138 388.884 682.682C388.994 682.187 389.249 681.737 389.617 681.389C389.985 681.042 390.448 680.812 390.948 680.73C392.962 682.079 394.624 683.891 395.795 686.014C396.966 688.137 397.612 690.51 397.678 692.934C397.139 693.763 396.318 694.369 395.367 694.639V694.639Z" fill="#455A64"/>
<path d="M539.166 626.553C541.409 631.914 540.131 641.875 527.164 653.361C514.197 664.847 488.758 669.064 483.553 659.485C478.349 649.906 490.934 634.27 505.045 627.136C519.155 620.002 534.679 618.208 539.166 626.553Z" fill="#37474F"/>
<path d="M605.591 860.489C605.241 860.062 604.833 859.684 604.38 859.368C603.953 859.031 603.639 858.874 603.258 858.605C589.461 848.286 584.167 841.197 575.441 826.547C573.78 821.567 570.954 814.411 570.281 808.444C569.316 798.685 567.679 784.574 566.467 772.976C564.044 749.758 562.384 725.978 560.926 706.977C558.683 678.801 557.045 674.516 548.341 653.899C538.672 631.017 526.154 605.174 516.485 583.122C526.266 582.471 533.086 574.664 544.662 556.089C545.088 547.116 543.248 542.427 542.216 532.243C531.872 534.434 521.37 535.807 510.81 536.348C490.956 537.627 476.15 536.886 461.097 528.99C456.992 538.434 447.143 551.423 448.086 575.562C449.05 600.239 467.109 626.059 480.614 647.012C490.664 662.581 498.83 677.163 511.55 695.715C510.877 710.679 511.55 720.392 516.149 734.413C518.392 741.143 526.737 758.484 534.096 778.495C539.121 792.224 543.406 803.979 544.101 806.806C545.537 812.661 546.658 818.023 544.437 824.506C543.45 827.333 541.454 831.348 543.607 835.162C546.636 840.524 552.065 841.578 556.35 846.132C560.146 849.933 563.543 854.113 566.49 858.605C568.228 861.375 570.538 863.74 573.266 865.543C575.994 867.346 579.076 868.545 582.305 869.059C586.139 869.955 590.116 870.055 593.99 869.353C597.864 868.651 601.553 867.161 604.828 864.976C605.481 864.536 605.976 863.899 606.242 863.159C606.33 862.693 606.318 862.214 606.205 861.754C606.093 861.293 605.884 860.862 605.591 860.489V860.489Z" fill="#FFA8A7"/>
<path d="M448.871 528.07C447.075 542.956 446.274 557.945 446.471 572.937C446.471 593.127 456.229 611.074 465.988 628.056C475.746 645.038 483.553 659.463 483.553 659.463C483.553 659.463 482.723 645.016 499.93 632.273C518.437 618.589 535.823 621.348 539.166 626.531L519.492 581.664C519.492 581.664 538.582 571.972 545.425 556.112C545.425 556.112 544.662 543.482 542.665 530.941C542.665 531.054 491.046 548.193 448.871 528.07Z" fill="#455A64"/>
<path d="M518.483 581.551C523.912 594.024 531.495 608.472 535.443 618.073L527.165 584.558C535.174 576.078 538.853 572.6 542.869 561.249C537.821 569.101 530.665 573.52 518.483 581.551Z" fill="#263238"/>
<path d="M545.313 810.821C543.384 811.449 543.339 813.693 544.617 815.577C545.264 816.559 545.976 817.496 546.749 818.381L545.313 810.821Z" fill="#2A5278"/>
<path opacity="0.3" d="M545.313 810.821C543.384 811.449 543.339 813.693 544.617 815.577C545.264 816.559 545.976 817.496 546.749 818.381L545.313 810.821Z" fill="black"/>
<path d="M590.763 846.356C586.994 841.87 577.684 827.041 576.136 822.599C574.588 818.157 576.607 814.882 572.098 815.69C567.589 816.497 561.24 817.013 560.5 819.615C559.76 822.218 561.868 828.365 566.692 835.925C570.747 841.622 575.545 846.753 580.959 851.179L590.763 846.356Z" fill="#2A5278"/>
<path opacity="0.1" d="M590.763 846.356C586.994 841.87 577.684 827.041 576.136 822.599C574.588 818.157 576.607 814.882 572.098 815.69C567.589 816.497 561.24 817.013 560.5 819.615C559.76 822.218 561.868 828.365 566.692 835.925C570.747 841.622 575.545 846.753 580.959 851.179L590.763 846.356Z" fill="black"/>
<path d="M611.313 869.463C611.582 871.347 611.313 872.648 604.74 875.048C598.167 877.449 588.071 877.404 579.637 875.318C571.202 873.231 563.933 865.537 560.389 860.13C556.844 854.724 549.688 849.654 544.932 847.007C540.176 844.359 539.211 843.305 539.593 841.69C539.974 840.075 541.41 835.812 541.41 835.812L611.313 869.463Z" fill="#EBEBEB"/>
<path d="M545.312 810.822C543.787 811.876 544.482 814.815 547.039 817.282C548.071 818.83 548.7 824.237 551.01 825.067C553.321 825.897 555.497 821.612 558.122 821.612C560.746 821.612 563.214 826.099 566.736 831.64C570.258 837.181 580.196 849.587 581.677 849.587C583.157 849.587 588.519 845.93 590.807 846.289C594.285 849.609 597.94 852.739 601.755 855.666C607.139 859.637 609.023 860.848 610.593 861.903C612.164 862.957 612.5 866.748 611.625 868.992C610.75 871.235 598.3 876.709 585.131 873.635C571.963 870.562 568.194 864.774 563.663 857.573C560.3 852.174 555.582 847.75 549.978 844.741C546.525 843.161 543.41 840.929 540.803 838.168C540.055 835.155 540.055 832.005 540.803 828.993C542.014 823.609 543.562 819.122 542.867 814.792C542.568 813.719 542.599 812.58 542.955 811.524C543.311 810.468 543.976 809.544 544.863 808.87C545.065 809.507 545.215 810.16 545.312 810.822V810.822Z" fill="#2A5278"/>
<path d="M609.586 864.325C607.185 864.931 604.583 865.582 604.471 866.569C604.358 867.556 604.246 872.693 602.945 874.398C602.329 875.168 601.542 875.784 600.646 876.196C599.751 876.609 598.771 876.808 597.786 876.776C591.801 877.107 585.801 876.563 579.973 875.161C573.695 873.257 568.136 869.504 564.023 864.393C559.043 858.448 558.146 855.576 551.573 850.933C545 846.289 542.599 845.638 539.593 842.901C539.342 843.63 539.162 844.381 539.055 845.145C539.823 846.23 540.848 847.109 542.038 847.702C546.357 849.826 550.473 852.341 554.332 855.217C557.601 858.494 560.602 862.027 563.305 865.783C567.646 870.983 573.456 874.752 579.973 876.596C587.421 878.503 597.718 878.84 604.448 876.439C611.178 874.039 611.56 872.626 612.143 871.818C612.788 869.59 612.948 867.249 612.614 864.953C612.188 863.787 611.29 863.877 609.586 864.325Z" fill="#455A64"/>
<path d="M578.918 849.115C583.764 845.705 587.891 844.494 589.731 844.988C590.531 845.427 591.15 846.134 591.481 846.984C591.481 846.984 587.846 846.827 581.004 851.179C580.467 851.143 579.96 850.915 579.577 850.536C579.194 850.157 578.96 849.653 578.918 849.115Z" fill="#455A64"/>
<path d="M586.097 839.783C581.877 839.797 577.816 841.399 574.723 844.27C574.226 844.166 573.773 843.912 573.424 843.543C573.075 843.175 572.848 842.708 572.771 842.206C576.039 839.27 580.291 837.668 584.684 837.719C584.684 837.719 586.276 838.482 586.097 839.783Z" fill="#455A64"/>
<path d="M581.498 832.559C578.582 831.438 571.583 834.579 569.07 836.934C568.794 836.917 568.524 836.845 568.276 836.723C568.028 836.6 567.806 836.43 567.625 836.221C567.443 836.012 567.305 835.769 567.218 835.507C567.131 835.244 567.097 834.967 567.119 834.691C570.623 831.549 575.177 829.836 579.883 829.89C579.883 829.89 581.902 830.765 581.498 832.559Z" fill="#455A64"/>
<path d="M577.594 825.695C575.247 825.459 572.875 825.701 570.624 826.407C568.372 827.113 566.287 828.267 564.493 829.8C564.028 829.592 563.635 829.251 563.364 828.82C563.092 828.389 562.954 827.887 562.968 827.377C564.703 825.636 566.832 824.337 569.175 823.591C571.517 822.846 574.005 822.674 576.428 823.092C577.118 823.79 577.533 824.715 577.594 825.695V825.695Z" fill="#455A64"/>
<path d="M616.54 396.699C613.691 399.705 607.566 405.673 588.834 421.937C575.105 433.872 559.469 449.665 554.511 464.314C555.364 443.742 534.927 411.505 534.927 411.505C540.827 409.935 546.749 408.499 551.415 405.179C571.247 391.113 581.992 380.794 587.421 374.513C589.104 372.516 589.956 371.013 590.584 365.943C591.145 361.456 596.013 321.861 594.398 305.373C594.077 302.442 592.697 299.73 590.517 297.745C584.707 292.406 582.867 287.673 578.896 281.548C575.778 276.747 572.66 275.11 573.423 273.921C574.441 272.64 575.905 271.79 577.523 271.541C579.14 271.291 580.792 271.661 582.149 272.575C585.191 274.485 587.999 276.744 590.517 279.305C589.369 272.925 587.194 266.773 584.079 261.089C576.99 248.033 577.887 240.899 596.552 244.376C608.239 246.485 619.142 256.333 623.046 283.702C624.167 291.576 623.808 303.331 623.763 313.426C623.629 336.398 623.539 355.063 622.619 373.638C622.171 381.736 621.924 391.024 616.54 396.699Z" fill="#FFA8A7"/>
<path d="M460.492 421.533C458.249 429.991 447.256 501.89 445.35 562.348C472.898 574.417 529.004 564.591 545.627 544.401L547.4 513.914C551.617 491.032 553.277 470.842 555.094 461.016C557.068 450.181 556.777 423.373 539.166 412.829C531.502 410.152 523.459 408.721 515.342 408.589C504.776 408.208 485.506 408.275 474.962 410.339C469.847 411.371 461.95 416.306 460.492 421.533Z" fill="#2A5278"/>
<path opacity="0.6" d="M460.492 421.533C458.249 429.991 447.256 501.89 445.35 562.348C472.898 574.417 529.004 564.591 545.627 544.401L547.4 513.914C551.617 491.032 553.277 470.842 555.094 461.016C557.068 450.181 556.777 423.373 539.166 412.829C531.502 410.152 523.459 408.721 515.342 408.589C504.776 408.208 485.506 408.275 474.962 410.339C469.847 411.371 461.95 416.306 460.492 421.533Z" fill="white"/>
<path d="M481.648 481.116C481.648 481.116 521.086 484.302 545.628 474.252L541.41 513.488C541.41 513.488 515.5 527.285 477.812 518.334L481.648 481.116Z" fill="#FAFAFA"/>
<path d="M501.03 498.458C501.03 498.817 501.03 499.22 501.03 499.647V500.993L500.895 502.339C500.878 502.745 500.833 503.15 500.761 503.55C500.635 504.588 500.378 505.605 499.998 506.579C499.647 507.422 499.128 508.185 498.473 508.822C497.767 509.501 496.903 509.994 495.96 510.258C494.784 510.578 493.557 510.662 492.348 510.504C491.13 510.4 489.942 510.065 488.849 509.517C487.96 509.059 487.191 508.398 486.605 507.588C486.064 506.797 485.69 505.904 485.506 504.963C485.308 503.929 485.225 502.875 485.259 501.823C485.259 501.082 485.259 500.252 485.416 499.333C485.573 498.413 485.596 497.583 485.686 496.865C485.833 495.829 486.096 494.813 486.471 493.836C486.805 492.984 487.326 492.217 487.996 491.593C488.694 490.937 489.541 490.459 490.464 490.202C491.643 489.899 492.87 489.831 494.076 490C495.296 490.088 496.49 490.4 497.598 490.92C498.461 491.33 499.213 491.941 499.791 492.703C500.369 493.464 500.755 494.353 500.918 495.295C501.088 496.34 501.125 497.403 501.03 498.458V498.458ZM489.006 502.294C488.933 503.438 489.181 504.581 489.724 505.591C490.036 506.035 490.448 506.399 490.928 506.652C491.408 506.906 491.94 507.042 492.483 507.05C493.009 507.157 493.553 507.136 494.068 506.988C494.584 506.839 495.056 506.568 495.444 506.197C496.161 505.31 496.605 504.235 496.723 503.101C496.723 502.383 496.902 501.576 496.97 500.701C497.037 499.826 497.104 499.018 497.127 498.301C497.21 497.162 496.961 496.024 496.409 495.025C496.092 494.59 495.677 494.235 495.198 493.989C494.718 493.744 494.188 493.615 493.649 493.612C493.127 493.504 492.587 493.521 492.072 493.661C491.558 493.802 491.083 494.061 490.688 494.42C489.97 495.295 489.532 496.366 489.432 497.493C489.32 498.211 489.23 499.018 489.163 499.893C489.095 500.768 489.051 501.553 489.028 502.294H489.006Z" fill="black"/>
<path d="M514.939 497.807C515.495 497.42 515.949 496.905 516.263 496.304C516.486 495.893 516.63 495.444 516.689 494.98C516.754 494.645 516.748 494.3 516.671 493.968C516.594 493.635 516.447 493.323 516.24 493.051C515.935 492.789 515.576 492.599 515.187 492.494C514.799 492.389 514.392 492.372 513.997 492.445C513.085 492.454 512.205 492.779 511.507 493.365C510.927 493.945 510.476 494.641 510.183 495.407C510.092 495.64 509.936 495.842 509.735 495.99C509.582 496.114 509.393 496.185 509.196 496.192H506.953C506.852 496.203 506.75 496.193 506.653 496.162C506.557 496.131 506.468 496.08 506.392 496.012C506.325 495.942 506.277 495.855 506.254 495.761C506.23 495.667 506.231 495.568 506.257 495.474C506.445 494.598 506.787 493.763 507.267 493.006C507.77 492.227 508.39 491.531 509.107 490.942C509.859 490.329 510.698 489.83 511.597 489.462C512.521 489.063 513.508 488.827 514.513 488.766C515.57 488.65 516.64 488.757 517.654 489.08C518.421 489.346 519.114 489.792 519.673 490.382C520.171 490.93 520.525 491.592 520.705 492.311C520.9 493.042 520.946 493.805 520.839 494.554C520.775 495.015 520.686 495.472 520.57 495.923C520.43 496.39 520.226 496.835 519.964 497.246C519.644 497.764 519.267 498.245 518.843 498.682C518.266 499.282 517.643 499.837 516.981 500.342C514.535 502.473 513.324 503.528 510.879 505.591C514.154 505.367 515.792 505.233 519.067 504.896C519.165 504.882 519.264 504.89 519.358 504.921C519.451 504.953 519.536 505.005 519.605 505.075C519.671 505.143 519.72 505.224 519.747 505.314C519.774 505.404 519.78 505.499 519.762 505.591C519.762 506.399 519.605 506.803 519.493 507.61C519.453 507.827 519.342 508.024 519.179 508.171C519.019 508.338 518.804 508.441 518.574 508.463C513.055 509.024 510.318 509.226 504.844 509.472C504.745 509.478 504.647 509.463 504.554 509.428C504.461 509.393 504.377 509.339 504.306 509.271C504.242 509.197 504.196 509.111 504.169 509.018C504.141 508.926 504.135 508.828 504.149 508.732L504.396 506.982C504.441 506.664 504.582 506.367 504.799 506.13C504.973 505.944 505.16 505.771 505.36 505.614C509.084 502.608 511.036 501.015 514.939 497.807Z" fill="black"/>
<path d="M540.491 485.85C540.579 485.82 540.674 485.815 540.764 485.835C540.855 485.855 540.939 485.899 541.007 485.962C541.077 486.022 541.13 486.099 541.161 486.185C541.192 486.272 541.201 486.365 541.186 486.456C541.186 487.263 541.007 487.667 540.895 488.475C540.869 488.71 540.767 488.931 540.603 489.103L540.11 489.664C538.136 491.75 537.126 492.782 535.152 494.823C535.942 494.793 536.734 494.861 537.507 495.025C538.125 495.18 538.7 495.471 539.19 495.878C539.639 496.284 539.972 496.803 540.155 497.381C540.357 498.111 540.395 498.877 540.267 499.624C540.131 500.602 539.795 501.542 539.28 502.383C538.747 503.226 538.089 503.983 537.328 504.627C536.513 505.214 535.622 505.69 534.681 506.04C533.64 506.492 532.547 506.816 531.428 507.005C530.261 507.182 529.073 507.182 527.906 507.005C527.058 506.88 526.242 506.591 525.505 506.152C524.934 505.783 524.476 505.263 524.182 504.649C523.919 504.097 523.796 503.488 523.823 502.877C523.827 502.764 523.855 502.654 523.905 502.554C523.956 502.453 524.027 502.364 524.115 502.294C524.287 502.144 524.496 502.043 524.72 502.002L527.076 501.71C527.154 501.693 527.236 501.694 527.313 501.713C527.391 501.733 527.464 501.77 527.524 501.823C527.664 501.958 527.778 502.117 527.861 502.294C527.95 502.51 528.08 502.708 528.242 502.877C528.453 503.063 528.696 503.207 528.96 503.303C529.337 503.429 529.73 503.497 530.127 503.505C530.728 503.519 531.329 503.474 531.921 503.37C533.009 503.214 534.046 502.807 534.95 502.181C535.324 501.923 535.64 501.591 535.88 501.205C536.119 500.819 536.276 500.388 536.341 499.938C536.434 499.602 536.395 499.243 536.233 498.934C536.07 498.626 535.796 498.391 535.466 498.278C534.528 498.067 533.555 498.067 532.617 498.278L530.149 498.659C530.059 498.68 529.965 498.678 529.875 498.655C529.785 498.631 529.702 498.587 529.633 498.525C529.562 498.461 529.508 498.38 529.476 498.29C529.445 498.2 529.437 498.103 529.454 498.009C529.566 497.201 529.633 496.797 529.745 495.99C529.771 495.754 529.873 495.533 530.037 495.362L530.531 494.823C532.437 492.916 533.38 491.929 535.264 489.978C531.989 490.538 530.351 490.763 527.076 491.189C526.98 491.21 526.881 491.207 526.787 491.179C526.692 491.152 526.607 491.101 526.537 491.032C526.472 490.97 526.423 490.892 526.396 490.805C526.368 490.719 526.363 490.627 526.38 490.538C526.492 489.708 526.56 489.305 526.672 488.497C526.7 488.281 526.803 488.083 526.964 487.936C527.128 487.771 527.34 487.661 527.569 487.622C532.662 487.106 535.264 486.702 540.491 485.85Z" fill="black"/>
<path d="M493.627 324.71C491.109 325.043 488.71 325.988 486.641 327.462C484.572 328.937 482.896 330.896 481.76 333.168C479.27 338.125 480.93 348.153 483.757 361.367C485.319 369.907 487.793 378.255 491.137 386.268C492.33 388.549 494.354 390.284 496.79 391.113L496.925 375.545L496.701 364.664C496.701 364.664 506.392 367.94 509.286 352.169C510.436 345.235 511.043 338.222 511.103 331.194L493.627 324.71Z" fill="#263238"/>
<path d="M505.068 342.051C504.883 347.824 506.416 353.521 509.474 358.421C512.531 363.321 516.974 367.203 522.241 369.575C527.507 371.947 533.358 372.701 539.054 371.743C544.749 370.785 550.032 368.158 554.233 364.194C558.433 360.229 561.362 355.107 562.648 349.477C563.934 343.846 563.519 337.961 561.456 332.566C559.393 327.172 555.774 322.511 551.059 319.176C546.344 315.84 540.745 313.98 534.971 313.83C527.27 313.631 519.803 316.486 514.2 321.774C508.597 327.062 505.314 334.351 505.068 342.051V342.051Z" fill="#263238"/>
<path d="M500.492 363.946C500.02 364.129 499.505 364.168 499.011 364.059C498.367 363.847 497.782 363.487 497.303 363.007C496.824 362.528 496.463 361.943 496.252 361.299C495.859 360.003 495.394 358.73 494.861 357.486C493.694 355.242 490.195 354.39 487.794 354.39C486.242 354.445 484.723 354.858 483.357 355.598C481.992 356.337 480.815 357.383 479.92 358.652C474.783 365.382 480.122 376.801 485.416 379.448C493.133 383.351 496.925 375.544 496.925 375.544L496.543 410.743C496.543 410.743 498.405 417.473 511.686 422.565C522.073 426.581 537.843 420.927 528.421 410.63V398.965C533.725 400.192 539.213 400.405 544.596 399.593C549.868 398.516 552.492 394.972 554.893 386.784C559.986 368.785 559.978 349.726 554.87 331.732C549.307 327.133 540.266 328.21 533.783 329.489C528.934 330.51 524.2 332.013 519.65 333.975C518.842 334.312 516.509 334.917 516.038 335.658C515.567 336.398 516.038 337.452 516.038 338.215C515.98 340.353 515.232 342.415 513.907 344.093C511.501 346.415 508.277 347.696 504.933 347.66C504.911 351.73 504.322 355.777 503.184 359.684C502.892 361.344 501.927 363.475 500.492 363.946Z" fill="#FFA8A7"/>
<path d="M561.601 312.686C561.521 312.471 561.385 312.281 561.208 312.135C561.03 311.989 560.818 311.893 560.591 311.856C560.222 311.87 559.868 312.004 559.582 312.237C557.541 313.781 555.372 315.147 553.098 316.32C553.774 313.484 553.903 310.545 553.48 307.661C553.211 305.889 552.852 301.783 550.676 301.29C549.397 300.976 548.23 302.03 547.243 302.905C538.27 310.802 527.053 306.651 516.442 306.651C507.626 306.651 496.902 309.904 492.64 318.317C490.711 322.175 490.262 326.303 493.762 329.107C496.768 331.53 506.796 333.975 510.385 335.164C519.919 338.305 544.461 346.381 557.944 330.431C560.212 327.314 561.745 323.725 562.431 319.932C562.837 317.523 562.549 315.049 561.601 312.798V312.686Z" fill="#263238"/>
<path d="M528.578 398.965C528.578 398.965 515.432 396.183 510.227 392.572C506.82 390.248 504.038 387.119 502.129 383.464C502.129 383.464 503.251 390.956 506.84 394.994C513.166 402.083 528.533 404.237 528.533 404.237L528.578 398.965Z" fill="#F28F8F"/>
<path d="M527.614 359.976C527.57 360.604 527.342 361.204 526.958 361.703C526.575 362.203 526.054 362.578 525.459 362.783C524.864 362.988 524.222 363.013 523.612 362.856C523.003 362.699 522.453 362.366 522.032 361.898C521.61 361.431 521.336 360.85 521.242 360.228C521.148 359.606 521.239 358.97 521.504 358.399C521.769 357.828 522.196 357.348 522.732 357.018C523.268 356.688 523.889 356.523 524.518 356.543C525.381 356.596 526.189 356.985 526.768 357.626C527.347 358.268 527.651 359.112 527.614 359.976V359.976Z" fill="#263238"/>
<path d="M523.306 348.871L516.576 352.842C516.061 351.917 515.922 350.83 516.19 349.805C516.457 348.781 517.11 347.9 518.012 347.346C518.457 347.087 518.95 346.921 519.461 346.858C519.972 346.795 520.49 346.835 520.985 346.978C521.479 347.121 521.94 347.362 522.339 347.687C522.738 348.013 523.067 348.415 523.306 348.871V348.871Z" fill="#263238"/>
<path d="M526.716 378.842L540.176 382.97C539.573 384.787 538.291 386.301 536.598 387.196C534.905 388.09 532.931 388.296 531.09 387.771C530.207 387.486 529.391 387.026 528.689 386.418C527.988 385.811 527.416 385.068 527.007 384.235C526.599 383.402 526.363 382.495 526.313 381.568C526.263 380.642 526.4 379.715 526.716 378.842V378.842Z" fill="#B16668"/>
<path d="M535.69 387.591C535.274 385.819 534.244 384.251 532.782 383.167C531.319 382.083 529.52 381.552 527.704 381.669C527.259 381.72 526.817 381.795 526.38 381.893C526.494 383.239 527.011 384.52 527.864 385.568C528.716 386.616 529.864 387.384 531.158 387.771C532.646 388.219 534.242 388.156 535.69 387.591V387.591Z" fill="#F28F8F"/>
<path d="M554.713 350.509L547.736 346.897C547.947 346.429 548.251 346.008 548.63 345.662C549.009 345.315 549.455 345.05 549.94 344.882C550.425 344.714 550.94 344.646 551.452 344.684C551.964 344.722 552.463 344.865 552.918 345.102C553.855 345.6 554.564 346.44 554.898 347.446C555.232 348.453 555.166 349.55 554.713 350.509V350.509Z" fill="#263238"/>
<path d="M552.179 358.293C552.134 358.92 551.907 359.52 551.525 360.019C551.143 360.518 550.623 360.893 550.029 361.099C549.435 361.305 548.794 361.332 548.185 361.176C547.576 361.021 547.027 360.69 546.604 360.225C546.181 359.76 545.905 359.181 545.808 358.56C545.712 357.939 545.8 357.304 546.062 356.732C546.323 356.161 546.747 355.679 547.28 355.346C547.813 355.014 548.432 354.845 549.06 354.861C549.927 354.907 550.741 355.294 551.325 355.936C551.908 356.579 552.215 357.426 552.179 358.293Z" fill="#263238"/>
<path d="M537.485 375.298L547.602 372.695L536.094 356.611L537.485 375.298Z" fill="#F28F8F"/>
<path d="M497.979 559.992L486.515 561.271L494.636 552.545C451.766 568.786 386.754 556.448 311.243 570.334C265.209 578.792 209.17 611.141 192.727 629.334V655.38C209.395 635.19 274.003 594.989 312.678 587.249C392.609 571.209 456.253 585.656 492.393 573.026L498.674 570.334L487.637 569.033L497.979 559.992Z" fill="#2A5278"/>
<path opacity="0.2" d="M497.979 559.992L486.515 561.271L494.636 552.545C451.766 568.786 386.754 556.448 311.243 570.334C265.209 578.792 209.17 611.141 192.727 629.334V655.38C209.395 635.19 274.003 594.989 312.678 587.249C392.609 571.209 456.253 585.656 492.393 573.026L498.674 570.334L487.637 569.033L497.979 559.992Z" fill="black"/>
<path d="M426.349 583.121C423.006 576.863 420.875 574.956 419.103 569.011C420.964 570.675 423.048 572.071 425.295 573.161C428.009 574.26 431.531 573.946 432.227 571.501C432.922 569.056 428.794 567.979 427.067 565.377C424.35 560.934 421.21 556.764 417.69 552.926C416.732 552.179 415.936 551.244 415.349 550.18C414.763 549.116 414.399 547.944 414.28 546.734C413.023 529.326 413.719 508.351 413.046 488.654C425.541 480.78 451.474 466.939 461.906 460.523C470.027 455.52 476.6 442.441 478.372 429.34C478.821 426.02 479.27 414.534 477.34 409.98C470.61 408.97 461.525 411.303 454.054 416.441C449.568 419.537 440.931 426.199 421.257 440.961C410.04 449.306 394.449 460.208 382.671 474.297C377.422 480.601 386.238 533.185 388.1 545.029C389.109 551.445 390.927 561.316 393.08 569.706C396.714 583.862 405.867 595.123 416.433 596.783C433.303 599.476 430.858 591.579 426.349 583.121Z" fill="#FFA8A7"/>
<path d="M615.015 470.662C594.825 507.543 568.891 536.101 516.936 545.972L529.61 548.394L518.977 555.394L529.79 556.852L522.387 564.143C579.323 551.647 606.602 520.061 627.465 483.562C642.249 457.718 651.828 416.957 668.496 386.739C681.665 362.892 693.173 350.15 703.986 342.679V321.48C686.959 331.306 670.582 349.656 657.638 373.368C638.682 408.275 625.424 451.616 615.015 470.662Z" fill="#2A5278"/>
<path opacity="0.2" d="M615.015 470.662C594.825 507.543 568.891 536.101 516.936 545.972L529.61 548.394L518.977 555.394L529.79 556.852L522.387 564.143C579.323 551.647 606.602 520.061 627.465 483.562C642.249 457.718 651.828 416.957 668.496 386.739C681.665 362.892 693.173 350.15 703.986 342.679V321.48C686.959 331.306 670.582 349.656 657.638 373.368C638.682 408.275 625.424 451.616 615.015 470.662Z" fill="black"/>
<path d="M820.727 237.713C820.727 237.713 811.417 232.105 810.969 222.01L817.856 216.469C817.856 216.469 816.914 222.66 824.922 231.521L820.727 237.713Z" fill="#2A5278"/>
<path d="M905.168 158.747C905.168 158.747 896.396 152.331 896.823 142.281L904.158 137.368C904.158 137.368 902.678 143.448 909.879 153.072L905.168 158.747Z" fill="#2A5278"/>
<path d="M958.67 507.184C958.67 507.184 949.899 500.768 950.348 490.695L957.683 485.805C957.683 485.805 956.203 491.884 963.404 501.508L958.67 507.184Z" fill="#2A5278"/>
<path d="M902.789 40.3658C902.789 40.3658 899.245 30.0913 905.347 22.0825L914.163 22.2395C914.163 22.2395 909.474 26.3897 909.946 38.3243L902.789 40.3658Z" fill="#2A5278"/>
<path d="M973.051 233.832C973.051 233.832 977.919 243.546 972.938 252.295L964.167 253.327C964.167 253.327 968.272 248.593 966.208 236.816L973.051 233.832Z" fill="#2A5278"/>
<path d="M143.798 198.97C143.798 198.97 149.967 188.875 145.323 178.937L135.879 177.053C135.879 177.053 139.917 182.549 136.642 195.157L143.798 198.97Z" fill="#2A5278"/>
<path d="M412.125 14.7468C412.125 14.7468 411.991 25.627 420.291 31.3027L428.636 28.3639C428.636 28.3639 422.871 25.8962 419.663 14.4327L412.125 14.7468Z" fill="#2A5278"/>
<path d="M15.2089 324.329C15.2089 324.329 24.7207 319.057 25.5283 309.029L18.7983 303.241C18.7983 303.241 19.5162 309.455 11.1709 318.002L15.2089 324.329Z" fill="#2A5278"/>
<path d="M59.6046 413.726C59.6046 413.726 50.1152 408.454 49.3076 398.359L56.0377 392.571C56.0377 392.571 55.3198 398.785 63.665 407.333L59.6046 413.726Z" fill="#2A5278"/>
<path d="M74.5226 391.786C74.5226 391.786 70.4397 381.714 76.1154 373.391L84.9317 373.099C84.9317 373.099 80.445 377.474 81.5667 389.363L74.5226 391.786Z" fill="#2A5278"/>
<path d="M771.979 12.8623C771.979 12.8623 771.373 23.6977 779.427 29.7323L787.884 27.1749C787.884 27.1749 782.231 24.4604 779.427 12.8623H771.979Z" fill="#2A5278"/>
<path d="M991.603 89.0016C991.603 89.0016 996.515 98.6704 991.603 107.442L982.854 108.519C982.854 108.519 986.914 103.763 984.783 92.0077L991.603 89.0016Z" fill="#2A5278"/>
<path d="M848.03 113.454C848.03 113.454 840.066 106.073 841.659 96.1353L849.511 92.1198C849.511 92.1198 847.267 97.9749 853.392 108.272L848.03 113.454Z" fill="#2A5278"/>
<path d="M892.313 287.022C892.313 287.022 897.047 296.803 891.954 305.485L883.16 306.382C883.16 306.382 887.333 301.693 885.404 289.893L892.313 287.022Z" fill="#2A5278"/>
<path d="M952.121 382.185C952.121 382.185 948.958 371.776 955.374 364.014L964.168 364.485C964.168 364.485 958.066 368.77 958.089 380.727L952.121 382.185Z" fill="#2A5278"/>
<path d="M941.756 410.339C941.756 410.339 932.424 404.798 931.908 394.635L938.75 389.072C939.139 394.98 941.393 400.612 945.189 405.157L941.756 410.339Z" fill="#2A5278"/>
<path d="M375.693 68.1384C375.693 68.1384 380.404 77.9193 375.267 86.5787L366.473 87.4536C366.473 87.4536 370.668 82.7874 368.716 70.9874L375.693 68.1384Z" fill="#2A5278"/>
<path d="M32.3697 210.748C32.3697 210.748 40.6925 203.771 39.5933 193.766L31.9435 189.279C31.9435 189.279 33.8279 195.247 27.2549 205.229L32.3697 210.748Z" fill="#2A5278"/>
<path d="M40.0205 508.283C40.0205 508.283 42.3985 521.743 53.9741 526.724L63.5757 521.115C63.5757 521.115 55.9034 519.433 49.1509 506.085L40.0205 508.283Z" fill="#2A5278"/>
<path d="M114.409 271.745C114.409 271.745 113.916 282.602 122.036 288.547L130.471 285.9C130.471 285.9 123.495 283.253 120.578 271.677L114.409 271.745Z" fill="#2A5278"/>
<g opacity="0.25">
<path opacity="0.25" d="M771.979 12.8623C771.979 12.8623 771.373 23.6977 779.427 29.7323L787.884 27.1749C787.884 27.1749 782.231 24.4604 779.427 12.8623H771.979Z" fill="black"/>
<path opacity="0.25" d="M991.603 89.0015C991.603 89.0015 996.515 98.6704 991.603 107.442L982.854 108.519C982.854 108.519 986.914 103.763 984.783 92.0076L991.603 89.0015Z" fill="black"/>
<path opacity="0.25" d="M848.029 113.454C848.029 113.454 840.065 106.073 841.658 96.1354L849.51 92.1198C849.51 92.1198 847.266 97.975 853.391 108.272L848.029 113.454Z" fill="black"/>
<path opacity="0.25" d="M892.313 287.022C892.313 287.022 897.047 296.803 891.954 305.485L883.16 306.382C883.16 306.382 887.333 301.693 885.404 289.893L892.313 287.022Z" fill="black"/>
<path opacity="0.25" d="M952.12 382.185C952.12 382.185 948.956 371.776 955.372 364.014L964.166 364.485C964.166 364.485 958.064 368.769 958.087 380.726L952.12 382.185Z" fill="black"/>
<path opacity="0.25" d="M941.755 410.339C941.755 410.339 932.423 404.798 931.907 394.635L938.749 389.072C939.138 394.98 941.392 400.612 945.188 405.157L941.755 410.339Z" fill="black"/>
<path opacity="0.25" d="M375.692 68.1384C375.692 68.1384 380.403 77.9194 375.266 86.5787L366.472 87.4537C366.472 87.4537 370.667 82.7875 368.715 70.9875L375.692 68.1384Z" fill="black"/>
<path opacity="0.25" d="M32.3697 210.748C32.3697 210.748 40.6925 203.771 39.5933 193.766L31.9435 189.279C31.9435 189.279 33.8279 195.247 27.2549 205.229L32.3697 210.748Z" fill="black"/>
<path opacity="0.25" d="M40.0195 508.283C40.0195 508.283 42.3975 521.743 53.9732 526.724L63.5747 521.115C63.5747 521.115 55.9024 519.433 49.15 506.085L40.0195 508.283Z" fill="black"/>
<path opacity="0.25" d="M114.409 271.745C114.409 271.745 113.916 282.602 122.036 288.547L130.471 285.9C130.471 285.9 123.495 283.253 120.578 271.677L114.409 271.745Z" fill="black"/>
</g>
</svg>
