<svg width="168" height="186" viewBox="0 0 168 186" fill="none" xmlns="http://www.w3.org/2000/svg">
<path d="M154.309 70.7107L83.598 0L49.4285 34.1695C30.9112 52.9324 30.987 83.1537 49.656 101.823L15.7157 67.8823L12.8873 70.7107C-4.29577 87.8937 -4.29576 115.753 12.8873 132.936L52.4853 172.534C69.6684 189.717 97.5276 189.717 114.711 172.534L154.309 132.936C171.492 115.753 171.492 87.8937 154.309 70.7107Z" fill="#F06A6A"/>
<path d="M83.8113 68L117.752 101.941C136.498 120.686 136.498 151.078 117.752 169.823L114.924 172.652C97.7409 189.835 69.8816 189.835 52.6986 172.652L49.8702 169.823C31.125 151.078 31.125 120.686 49.8702 101.941L83.8113 68Z" fill="#F1BC6C"/>
<path d="M83.8701 136L117.811 169.941L114.983 172.77C97.7997 189.953 69.9404 189.953 52.7574 172.77L49.929 169.941L83.8701 136Z" fill="#F1E36C"/>
</svg>
