<svg width="72" height="72" viewBox="0 0 72 72" fill="none" xmlns="http://www.w3.org/2000/svg">
<path d="M36 65.7901C20.88 65.7901 8.55005 53.4901 8.55005 38.3401V32.7001C8.55005 31.5301 9.51005 30.6001 10.65 30.6001C11.79 30.6001 12.75 31.5601 12.75 32.7001V38.3401C12.75 51.1501 23.16 61.5601 35.97 61.5601C48.78 61.5601 59.19 51.1501 59.19 38.3401V32.7001C59.19 31.5301 60.15 30.6001 61.29 30.6001C62.43 30.6001 63.39 31.5601 63.39 32.7001V38.3401C63.45 53.4901 51.12 65.7901 36 65.7901Z" fill="#2A5278"/>
<path d="M35.9997 6.00012C25.9197 6.00012 17.6997 14.2201 17.6997 24.3001V38.3701C17.6997 48.4501 25.9197 56.6701 35.9997 56.6701C46.0797 56.6701 54.2997 48.4501 54.2997 38.3701V24.3001C54.2997 14.2201 46.0797 6.00012 35.9997 6.00012ZM42.5397 31.7701C42.3297 32.5801 41.5797 33.1201 40.7697 33.1201C40.6197 33.1201 40.4397 33.0901 40.2897 33.0601C37.2297 32.2201 33.9897 32.2201 30.9297 33.0601C29.9397 33.3301 28.9497 32.7601 28.6797 31.7701C28.4097 30.8101 28.9797 29.7901 29.9697 29.5201C33.6597 28.5001 37.5597 28.5001 41.2497 29.5201C42.2397 29.7901 42.8097 30.7801 42.5397 31.7701ZM45.0897 23.4601C44.8197 24.2101 44.1297 24.6601 43.3797 24.6601C43.1697 24.6601 42.9597 24.6301 42.7497 24.5401C38.1597 22.8601 33.1197 22.8601 28.5297 24.5401C27.5697 24.9001 26.5197 24.4201 26.1597 23.4601C25.8297 22.5301 26.3097 21.4801 27.2697 21.1201C32.6697 19.1701 38.6097 19.1701 43.9797 21.1201C44.9397 21.4801 45.4197 22.5301 45.0897 23.4601Z" fill="#2A5278"/>
</svg>
