<svg width="1149" height="886" viewBox="0 0 1149 886" fill="none" xmlns="http://www.w3.org/2000/svg">
<path d="M574.5 1131.93C891.788 1131.93 1149 983.426 1149 800.242C1149 617.057 891.788 468.557 574.5 468.557C257.212 468.557 0 617.057 0 800.242C0 983.426 257.212 1131.93 574.5 1131.93Z" fill="#FAFAFA"/>
<path d="M574.5 1050.41C679.693 1050.41 764.969 1001.18 764.969 940.442C764.969 879.708 679.693 830.473 574.5 830.473C469.307 830.473 384.031 879.708 384.031 940.442C384.031 1001.18 469.307 1050.41 574.5 1050.41Z" fill="#E0E0E0"/>
<path d="M739.911 923.831C739.911 923.831 611.808 880.411 611.072 888.806C610.921 890.475 611.111 892.158 611.63 893.751L611.25 893.345L615.029 908.563C620.928 912.48 627.832 914.611 634.913 914.7C634.913 913.965 634.481 909.374 634.253 906.737C638.19 907.933 642.004 909.504 645.641 911.429C654.01 915.867 659.97 924.465 669.354 934.254C676.176 941.356 687.386 943.892 703.669 944.627C721.194 945.414 736.107 940.646 739.962 935.599C743.031 931.465 740.647 924.845 739.911 923.831Z" fill="#263238"/>
<path d="M736.234 921.294C734.94 920.179 730.096 915.791 723.553 911.15C717.922 907.066 711.328 901.867 704.379 897.809C701.038 895.945 697.857 893.807 694.868 891.418C692.51 889.338 690.227 887.157 688.071 884.849C681.467 877.631 675.683 869.704 670.825 861.212C668.466 857.23 665.296 851.371 665.398 834.1C665.575 809.093 669.329 782.209 671.561 757.786L603.286 771.38C605.822 780.535 612.822 813.607 614.75 824.107C617.692 840.06 619.822 849.9 618.123 857.408C616.982 862.48 609.728 876.378 609.982 881.451C610.413 889.744 617.59 896.211 625.199 899.559C631.539 902.324 638.59 903.085 644.778 906.077C651.114 909.546 656.782 914.115 661.517 919.57C666.159 924.439 670.09 930.349 676.227 933.494C683.05 936.994 689.314 937.678 696.897 938.566C705.909 939.29 714.976 938.872 723.882 937.323C736.69 934.99 745.719 929.461 736.234 921.294Z" fill="#FFA8A7"/>
<path d="M728.321 912.976C722.614 909.045 714.499 903.414 704.734 897.125C701.52 896.34 698.175 896.253 694.925 896.87C691.674 897.487 688.593 898.793 685.89 900.701C668.593 912.012 666.793 925.834 666.793 925.834C670.469 931.644 676.264 935.793 682.948 937.4C704.912 944.552 742.321 938.008 741.737 928.295C741.382 922.132 735.27 917.769 728.321 912.976ZM617.844 854.872C617.844 854.872 613.355 866.31 610.743 872.853C608.13 879.397 608.206 885.534 612.746 891.494C615.127 894.53 618.103 897.048 621.492 898.892C624.881 900.737 628.61 901.87 632.453 902.222C636.587 883.302 625.655 858.143 617.844 854.872Z" fill="#37474F"/>
<path d="M487.686 882.542C490.907 888.274 485.404 908.994 485.48 923.933C485.48 937.527 488.016 961.316 483.248 974.479C477.516 990.127 464.455 1004.63 445.458 990.001C436.049 982.772 429.506 969.432 429.531 949.878C429.531 936.284 436.328 918.683 441.806 902.273C448.198 883.1 450.759 872.828 450.759 872.828L487.686 882.542Z" fill="#263238"/>
<path d="M453.828 780.789C450.987 812.314 453.65 834.683 452.89 854.922C452.374 864.109 450.964 873.223 448.679 882.136C445.408 894.817 440.006 912.57 437.698 920.939C434.477 932.505 432.093 939.783 435.567 953.073C435.845 954.122 436.245 955.135 436.759 956.091C441.832 967.174 456.009 976 460.701 974.91C461.588 976.158 462.815 977.126 464.235 977.697C465.656 978.268 467.211 978.418 468.715 978.131L470.288 977.826C470.822 977.67 471.347 977.484 471.86 977.268C473.806 976.322 475.536 974.985 476.941 973.34C478.346 971.694 479.397 969.777 480.027 967.707C480.375 966.777 480.672 965.829 480.915 964.866C485.049 948.762 483.096 938.11 483.096 931.744C483.096 924.363 483.958 915.03 485.175 903.211C486.393 891.393 491.009 854.288 496.005 836.687C499.682 824.412 504.248 809.017 509.092 792.582L453.828 780.789Z" fill="#FFA8A7"/>
<path d="M508.255 379.613C490.78 407.511 482.284 425.417 474.498 500.919C465.697 586.11 467.523 614.744 466.61 625.041C465.697 635.338 458.114 653.928 450.024 704.424C441.933 754.92 442.06 878.255 442.06 878.255C442.06 878.255 445.712 886.726 465.19 889.516C483.172 892.052 494.077 886.32 494.077 886.32C494.077 886.32 530.447 726.083 538.994 695.852C544.599 675.968 557.533 626.131 565.7 594.404C570.772 573.404 574.5 561.433 574.5 561.433L589.464 652.914C589.464 652.914 585.964 675.435 593.75 723.192C601.004 767.55 616.779 843.636 616.779 843.636C616.779 843.636 622.333 850.331 637.804 850.129C658.804 849.85 668.238 843.205 668.238 843.205C668.238 843.205 675.847 679.975 675.162 629.428C674.477 578.882 671.231 453.112 654.137 378.497L508.255 379.613Z" fill="#37474F"/>
<path d="M592.761 474.01L574.5 561.458L589.464 652.939L583.96 559.81L598.062 490.293C610.312 487.198 638.083 472.209 645.489 451.235C626.822 471.119 592.761 474.01 592.761 474.01ZM500.139 726.869C493.917 752.908 488.05 779.022 482.538 805.213C490.113 779.529 497.349 753.762 504.248 727.909C511.222 702.065 517.892 676.247 524.537 650.225C531.182 624.204 535.544 597.701 539.602 571.248C543.66 544.796 547.211 518.267 550.204 491.687C545.131 517.963 540.262 544.263 535.443 570.563C530.624 596.864 525.602 623.088 519.237 648.957C512.871 674.826 506.251 700.848 500.139 726.869ZM653.351 601.86C654.238 613.425 655.278 625.066 655.431 636.53C655.583 647.993 655.202 659.711 654.949 671.352L654.238 706.25C653.748 729.532 653.528 752.832 653.579 776.148C655.625 752.916 657.257 729.668 658.474 706.402C659.691 683.12 660.782 659.914 660.883 636.454C660.072 612.893 657.358 589.813 654.543 566.632C651.728 543.451 648.152 520.448 643.84 497.521L650.358 567.089C651.322 578.679 652.438 590.27 653.351 601.86Z" fill="#263238"/>
<path d="M524.005 92.3629C508.585 102.051 508.787 115.823 508.61 149.199C508.432 182.575 509.929 273.727 509.929 273.727H629.485V134.92C629.485 134.92 640.518 119.449 639.173 103.522C637.829 87.5948 628.369 66.874 599.685 60.8125C575.794 55.7401 530.066 60.8125 524.005 92.3629Z" fill="#263238"/>
<path d="M619.569 215.521C645.894 216.916 708.057 246.741 722.843 254.959C738.922 263.886 770.523 305.936 770.523 305.936C770.523 305.936 767.657 319.581 735.929 314.483C709.299 310.197 658.423 296.73 658.423 296.73L619.569 215.521Z" fill="#FFA8A7"/>
<path d="M725.531 307.585C714.194 304.719 698.495 292.875 670.952 239.107L725.531 307.585Z" fill="#F28F8F"/>
<path d="M494.787 407.435C490.222 399.471 510.005 371.548 506.682 356.001C503.334 340.784 495.523 306.418 495.523 306.418C495.523 306.418 518.526 283.263 511.298 223.738L544.725 216.129L572.623 214.506L598.746 212.35L619.594 215.445C627.076 222.166 643.891 237.636 654.771 253.716C670.495 276.922 672.524 305.809 655.658 324.273C655.405 327.925 652.59 361.58 656.546 375.453C658.119 380.957 664.637 406.446 660.908 413.725C644.398 439.645 547.54 465.565 494.787 407.435Z" fill="#E0E0E0"/>
<path d="M538.08 174.231C535.097 174.642 532.058 174.287 529.25 173.2C526.441 172.113 523.956 170.33 522.026 168.017C513.606 158.659 512.845 149.174 516.827 142.858C520.099 137.786 528.113 134.413 533.718 137.938C539.323 141.463 539.856 144.811 542.113 149.072C544.37 153.333 550.178 150.036 548.327 132.967C559.993 127.54 558.218 108.011 564.558 99.9966C574.475 87.5946 590.681 90.8916 595.931 93.859C599.14 91.6254 602.904 90.3224 606.807 90.0942C610.71 89.8659 614.6 90.7212 618.047 92.5655C625.858 96.801 631.007 105.627 633.619 135.96C636.155 166.876 630.829 187.419 623.652 193.937C618.732 198.426 609.601 201.546 598.721 200.734V213.618C598.721 213.618 625.478 249.683 585.482 246.589C555.504 244.205 544.725 216.155 544.725 216.155V169.412C544.725 169.412 544.04 173.141 538.08 174.231Z" fill="#FFA8A7"/>
<path d="M604.858 170.757C604.061 172.986 602.411 174.808 600.271 175.821C598.13 176.834 595.675 176.956 593.445 176.159C591.216 175.362 589.394 173.711 588.381 171.571C587.368 169.431 587.246 166.976 588.043 164.746C593.967 165.712 599.665 167.749 604.858 170.757Z" fill="#B16668"/>
<path d="M587.562 167.637C587.531 169.494 588.082 171.314 589.137 172.842C590.192 174.37 591.699 175.53 593.446 176.159C594.448 176.51 595.504 176.682 596.565 176.666C596.565 174.276 595.617 171.983 593.93 170.291C592.242 168.598 589.952 167.644 587.562 167.637Z" fill="#F28F8F"/>
<path d="M586.065 138.496C585.886 139.157 585.574 139.775 585.149 140.313C584.724 140.85 584.194 141.295 583.592 141.623C582.99 141.95 582.328 142.151 581.646 142.216C580.964 142.28 580.276 142.205 579.623 141.996C578.602 141.718 577.688 141.141 576.998 140.338C576.308 139.536 575.874 138.546 575.751 137.495C575.629 136.444 575.824 135.38 576.311 134.441C576.799 133.501 577.556 132.729 578.486 132.224C579.416 131.719 580.476 131.504 581.529 131.606C582.582 131.708 583.581 132.123 584.396 132.798C585.211 133.473 585.806 134.376 586.103 135.391C586.401 136.407 586.388 137.488 586.065 138.496Z" fill="#263238"/>
<path d="M627.253 120.261L616.525 114.428C616.873 113.714 617.362 113.079 617.964 112.561C618.566 112.044 619.267 111.654 620.024 111.417C620.781 111.179 621.579 111.099 622.369 111.181C623.158 111.262 623.923 111.504 624.616 111.892C626.036 112.691 627.099 114.001 627.589 115.555C628.078 117.109 627.959 118.792 627.253 120.261Z" fill="#263238"/>
<path d="M614.775 137.304C614.981 137.957 615.316 138.562 615.761 139.082C616.207 139.602 616.753 140.026 617.366 140.33C617.98 140.633 618.649 140.809 619.333 140.847C620.016 140.885 620.7 140.784 621.344 140.551C622.354 140.234 623.246 139.622 623.905 138.793C624.564 137.965 624.96 136.958 625.042 135.903C625.123 134.848 624.887 133.792 624.364 132.872C623.841 131.952 623.054 131.21 622.105 130.741C621.156 130.272 620.089 130.098 619.04 130.241C617.991 130.384 617.009 130.838 616.221 131.544C615.432 132.25 614.873 133.176 614.616 134.203C614.358 135.229 614.413 136.309 614.775 137.304Z" fill="#263238"/>
<path d="M578.634 115.797L567.754 122.975C567.246 122.29 566.884 121.508 566.691 120.677C566.497 119.847 566.475 118.986 566.628 118.147C566.78 117.308 567.102 116.509 567.575 115.8C568.048 115.09 568.661 114.485 569.377 114.022C570.854 113.076 572.637 112.733 574.36 113.063C576.082 113.394 577.612 114.372 578.634 115.797Z" fill="#263238"/>
<path d="M640.517 121.859L638.133 121.681C630.753 121.199 621.141 121.352 615.46 123.279C608.333 125.815 605.924 128.199 601.916 128.351C597.909 128.504 594.764 126.221 586.902 124.37C580.612 122.924 570.392 123.533 562.58 124.623L560.044 124.978C559.213 125.235 558.502 125.78 558.037 126.514C557.572 127.249 557.384 128.125 557.508 128.986C557.906 130.686 558.787 132.236 560.044 133.449C560.445 133.995 560.754 134.604 560.957 135.25C561.971 138.369 562.859 144.406 564.685 147.703C565.551 149.347 566.692 150.831 568.058 152.09C568.577 152.563 569.137 152.987 569.732 153.358C570.041 153.565 570.363 153.751 570.696 153.916C571.584 154.399 572.519 154.79 573.486 155.083H573.942L574.678 155.261L575.464 155.413C576.303 155.554 577.15 155.647 578 155.692H580.308C590.301 155.337 594.181 150.619 596.362 145.699C598.543 140.779 597.504 134.134 602.094 133.982H602.551H602.956C606.406 134.616 606.355 140.804 608.764 145.166C609.695 146.914 610.893 148.505 612.315 149.884C612.594 150.137 612.847 150.391 613.152 150.619C613.284 150.743 613.429 150.854 613.583 150.949L614.04 151.279L614.445 151.558L614.902 151.811L615.257 152.014H615.485C616.774 152.668 618.149 153.138 619.568 153.409H619.924C621.54 153.678 623.181 153.771 624.818 153.688C634.152 153.282 637.043 147.855 638.362 144.431C639.406 140.269 640.102 136.027 640.441 131.75C640.554 131.131 640.815 130.548 641.202 130.051C642.29 128.709 642.929 127.058 643.028 125.333C642.988 124.574 642.73 123.843 642.284 123.227C641.839 122.61 641.226 122.136 640.517 121.859ZM593.75 141.489C593.382 143.984 592.328 146.329 590.706 148.261C589.329 149.675 587.668 150.781 585.832 151.507C583.996 152.233 582.027 152.561 580.054 152.471C578.042 152.639 576.019 152.323 574.153 151.551C572.287 150.779 570.632 149.573 569.326 148.032C569.174 147.88 569.073 147.728 568.946 147.576L568.616 147.119C568.509 146.985 568.415 146.841 568.337 146.688L568.109 146.308L567.931 145.978C567.857 145.9 567.804 145.804 567.779 145.699C567.685 145.552 567.6 145.4 567.526 145.243C567.297 144.761 567.094 144.304 566.917 143.848L566.613 143.036C566.46 142.554 566.308 142.098 566.207 141.692V141.438V141.185C565.218 137.888 563.924 131.395 565.547 129.848C567.171 128.301 571.609 126.601 579.065 127.033H579.801C580.942 127.033 582.083 127.261 583.225 127.464L584.544 127.743C585.685 127.98 586.811 128.285 587.917 128.656L588.956 129.011L590.072 129.493H590.301L590.732 129.696C591.609 130.076 592.395 130.638 593.04 131.344C594.562 133.424 594.384 137.761 593.75 141.489ZM636.865 138.395C636.46 140.931 635.572 146.663 630.499 149.326C628.813 150.18 626.961 150.656 625.072 150.721C622.939 150.99 620.772 150.712 618.775 149.913C616.779 149.115 615.018 147.822 613.659 146.156L613.431 145.877L613.177 145.522L613.05 145.344L612.746 144.811C612.621 144.626 612.511 144.431 612.416 144.228C612.356 144.132 612.305 144.03 612.264 143.924V143.772C612.217 143.69 612.175 143.605 612.137 143.518V143.315C611.771 142.499 611.482 141.649 611.275 140.779C610.286 137.101 609.601 132.79 610.895 130.634C612.188 128.478 617.489 126.069 622.739 125.232C623.931 125.029 625.072 124.928 626.137 124.852H628.673H629.257H630.17C630.757 124.898 631.341 124.974 631.92 125.08H632.326H632.605H633.01H633.518L634.355 125.359C634.404 125.373 634.457 125.373 634.507 125.359C635.181 125.62 635.814 125.979 636.383 126.424C638.133 128.453 637.499 135.047 636.967 138.395H636.865Z" fill="#37474F"/>
<path d="M616.525 151.71L600.09 157.949L598.163 140.5C598.822 137.253 599.38 134.438 602.17 134.185L616.525 151.71Z" fill="#F28F8F"/>
<path d="M559.917 125.587L533.718 137.938C535.143 138.915 536.483 140.009 537.725 141.21L560.551 131.065L559.917 125.587Z" fill="#37474F"/>
<path d="M598.721 200.836C583.072 200.177 562.123 194.496 556.544 184.351C559.613 195.256 570.62 200.963 579.37 203.474C585.62 205.299 592.048 206.447 598.543 206.898L598.721 200.836Z" fill="#F28F8F"/>
<path d="M661.822 174.587C661.822 174.587 660.351 174.054 659.641 171.112C658.93 168.17 658.956 166.04 658.22 162.844C657.485 159.648 655.481 154.195 652.362 153.942C649.242 153.688 648.456 160.84 648.963 166.623C649.904 172.001 649.095 177.539 646.655 182.423C643.561 189.22 641.278 197.641 645.894 204.514L661.822 174.587Z" fill="#F28F8F"/>
<path d="M680.97 161.221C678.713 155.869 678.155 148.895 677.115 144.558C675.986 140.304 674.279 136.225 672.043 132.435C669.76 128.25 667.757 122.67 666.133 122.29C664.51 121.91 662.025 123.938 662.532 127.362C662.532 127.362 660.199 125.029 658.144 122.569C656.09 120.109 654.543 116.939 652.007 116.634C649.47 116.33 648.71 120.388 649.902 123.025C651.094 125.663 651.931 127.185 651.931 127.185C651.931 127.185 649.623 128.554 652.311 133.246C653.426 135.1 654.773 136.805 656.318 138.319C657.021 141.356 658.314 144.225 660.123 146.764C661.221 149.981 662.667 153.068 664.434 155.971C663.133 159.331 662.529 162.92 662.659 166.521C663.191 171.036 664.028 171.999 659.438 178.01C656.344 182.043 650.84 186.887 648.101 192.289C645.362 197.691 643.739 203.245 648.735 209.282C653.731 215.318 657.561 219.655 662.329 226.071C665.93 230.915 669.709 237.433 685.155 260.564C697.075 278.52 698.14 280.853 703.669 287.194C711.278 296.096 720.408 307.762 738.085 312.556C755.763 317.349 774.86 312.784 770.676 298.987C765.603 282.451 759.136 269.795 750.386 261.629C743.284 254.957 735.65 248.876 727.56 243.444C718.404 236.749 711.075 229.546 699.662 219.832C688.249 210.119 680.159 200.481 679.753 196.803C679.068 190.564 680.843 181.206 681.68 176.514C682.974 169.235 684.115 169.362 680.97 161.221Z" fill="#FFA8A7"/>
<path d="M645.894 204.412C647.444 207.509 649.473 210.342 651.905 212.807C654.086 215.521 656.267 218.235 658.347 220.999C660.427 223.763 662.582 226.528 664.611 229.368C666.64 232.209 668.974 236.343 670.952 239.209C668.72 236.546 666.235 232.488 664.079 229.749C661.923 227.01 659.818 224.271 657.662 221.532L651.296 213.289L648.101 209.155C647.038 207.748 646.286 206.131 645.894 204.412Z" fill="#F28F8F"/>
<path d="M662.481 127.388C662.956 128.891 663.558 130.35 664.282 131.75C664.992 133.145 665.778 134.515 666.564 135.808L666.691 136.011V136.315C666.615 137.159 666.615 138.008 666.691 138.851C666.777 139.707 666.93 140.555 667.148 141.388C667.576 143.024 668.261 144.582 669.177 146.004L669.405 146.359L669.278 146.688C669.07 147.301 668.909 147.928 668.796 148.565C668.662 149.218 668.569 149.879 668.517 150.543C668.517 151.203 668.517 151.888 668.517 152.547C668.547 153.235 668.615 153.921 668.72 154.601C668.093 153.332 667.714 151.955 667.604 150.543C667.541 149.826 667.541 149.105 667.604 148.388C667.647 147.662 667.748 146.941 667.909 146.232L668.035 146.891C666.855 145.39 665.992 143.664 665.499 141.819C665.251 140.915 665.089 139.989 665.017 139.054C664.903 138.102 664.903 137.14 665.017 136.188L665.144 136.696C664.364 135.265 663.727 133.762 663.242 132.207C662.747 130.648 662.49 129.023 662.481 127.388Z" fill="#F28F8F"/>
<path d="M651.88 127.21C652.455 127.9 653.092 128.537 653.782 129.112C654.475 129.651 655.203 130.143 655.963 130.583H656.09V130.837C656.788 132.582 657.7 134.235 658.804 135.757C659.893 137.239 661.242 138.51 662.785 139.511L663.267 139.815V140.398C663.166 141.419 663.166 142.447 663.267 143.467C663.364 144.533 663.525 145.591 663.749 146.637C664.003 147.677 664.282 148.742 664.637 149.757C664.992 150.771 665.448 151.811 665.854 152.851C665.14 151.981 664.496 151.057 663.927 150.087C663.362 149.109 662.886 148.081 662.506 147.018C662.115 145.933 661.834 144.811 661.669 143.67C661.443 142.509 661.383 141.322 661.492 140.145L661.923 141.007C661.003 140.479 660.151 139.841 659.387 139.105C658.661 138.375 658.007 137.576 657.434 136.721C656.259 135.029 655.4 133.139 654.898 131.141L655.151 131.471C654.397 130.897 653.715 130.233 653.122 129.493C652.614 128.787 652.196 128.02 651.88 127.21Z" fill="#F28F8F"/>
<path d="M666.387 161.981C666.56 164.016 666.265 166.064 665.524 167.967C664.802 169.863 663.774 171.628 662.481 173.191C662.811 172.228 663.217 171.315 663.597 170.402L664.688 167.663C665.364 165.804 665.932 163.907 666.387 161.981Z" fill="#F28F8F"/>
<path d="M651.727 186.608C650.955 190.134 650.955 193.785 651.727 197.311C652.139 199.028 652.778 200.683 653.63 202.231C654.516 203.839 655.516 205.381 656.622 206.847C654.997 205.836 653.578 204.528 652.438 202.992C651.239 201.426 650.376 199.63 649.901 197.716C649.457 195.836 649.39 193.886 649.703 191.98C650.017 190.073 650.705 188.247 651.727 186.608Z" fill="#F28F8F"/>
<path d="M467.219 474.695C464.049 470.51 459.839 466.706 458.875 461.329C458.566 459.957 458.587 458.532 458.935 457.17C459.283 455.808 459.949 454.548 460.879 453.492C461.336 453.136 461.701 452.675 461.944 452.148C462.058 451.673 462.058 451.178 461.944 450.702C461.62 448.691 461.949 446.629 462.882 444.819C463.327 444.084 463.919 443.449 464.622 442.956C465.325 442.462 466.123 442.121 466.965 441.953C466.299 438.948 466.619 435.808 467.878 433C469.375 429.703 473.128 427.319 475.081 431.351C475.986 433.339 476.691 435.412 477.186 437.54C478.441 442.851 479.079 448.289 479.088 453.746C479.088 459.427 479.088 475.481 470.212 475.43C469.603 475.405 467.676 475.278 467.219 474.695Z" fill="#F28F8F"/>
<path d="M514.697 222.977C486.799 228.937 478.632 234.136 462.147 258.484C443.201 286.382 417.332 319.657 409.825 332.465C400.568 348.341 398.336 354.555 414.441 373.881C422.734 383.823 434.477 395.87 446.321 409.388C455.654 420.014 467.042 431.402 476.02 442.358C477.247 443.564 478.109 445.091 478.508 446.764C478.908 448.437 478.827 450.189 478.277 451.818C477.35 453.961 476.546 456.154 475.868 458.387C475.626 461.375 475.626 464.377 475.868 467.365C475.937 468.864 475.575 470.352 474.825 471.651C474.074 472.95 472.966 474.007 471.632 474.695C470.229 475.105 468.745 475.149 467.321 474.822C469.634 476.95 472.26 478.712 475.107 480.046C477.982 481.368 481.248 481.567 484.262 480.604C487.128 479.539 489.335 477.13 492.404 476.521C494.027 476.217 495.701 476.521 497.324 476.166C498.998 475.893 500.538 475.083 501.711 473.858C503.563 471.93 504.552 468.988 507.012 467.923C508.236 467.566 509.481 467.287 510.74 467.086C511.973 466.634 513.078 465.891 513.961 464.919C514.845 463.948 515.48 462.777 515.813 461.507C516.455 458.964 516.644 456.329 516.371 453.721C515.971 446.702 515.2 439.709 514.063 432.772C513.558 430.378 512.63 428.093 511.324 426.025C509.954 423.489 508.787 421.13 507.19 418.822C497.045 403.047 465.038 350.624 465.038 350.624L513.226 296.4C513.226 296.4 537.117 249.785 514.697 222.977Z" fill="#FFA8A7"/>
<path d="M464.911 350.599C453.777 359.653 437.875 358.968 432.067 358.055C445.357 368.352 467.802 355.316 467.802 355.316L464.911 350.599Z" fill="#F28F8F"/>
<path d="M791.396 609.798C805.066 602.038 823.884 603.23 844.656 615.226C886.427 639.345 920.311 698.033 920.311 746.271C920.311 770.39 911.865 787.307 898.17 795.22C892.489 798.517 878.032 806.81 872.326 810.082C858.63 817.97 839.761 816.828 818.888 804.781C777.092 780.662 743.233 721.975 743.233 673.736C743.233 649.667 751.653 632.751 765.273 624.838C770.979 621.516 785.613 613.095 791.396 609.798Z" fill="#37474F"/>
<path d="M917.521 721.188C919.318 729.43 920.253 737.836 920.311 746.271C920.311 770.39 911.865 787.307 898.17 795.22C892.489 798.517 878.033 806.81 872.326 810.082C858.631 817.97 839.761 816.828 818.888 804.781C811.628 800.525 804.828 795.527 798.599 789.868L917.521 721.188Z" fill="#263238"/>
<path d="M765.349 748.249C751.679 724.536 743.233 697.83 743.233 673.736C743.233 625.548 777.092 605.918 818.888 630.037C860.685 654.156 894.543 712.844 894.543 761.082C894.543 809.321 860.685 828.9 818.888 804.781C807.927 798.27 797.973 790.197 789.341 780.814L758.476 786.444C757.582 786.615 756.658 786.541 755.802 786.231C754.946 785.922 754.189 785.388 753.61 784.685C753.032 783.982 752.653 783.136 752.514 782.236C752.375 781.337 752.481 780.416 752.82 779.571L765.349 748.249Z" fill="#455A64"/>
<path d="M817.797 753.423C811.482 749.771 807.653 754.514 807.653 761.032C807.687 764.831 808.625 768.567 810.389 771.932C812.153 775.297 814.692 778.194 817.797 780.383C824.113 784.035 827.942 779.292 827.942 772.774C827.908 768.975 826.97 765.239 825.206 761.874C823.442 758.509 820.903 755.612 817.797 753.423ZM819.091 658.722C808.008 652.305 798.167 654.841 792.917 666.508C792.48 667.485 792.302 668.558 792.4 669.624C792.498 670.69 792.868 671.713 793.475 672.595L803.417 687.127C805.294 689.866 807.374 689.663 808.135 688.243C810.366 683.881 813.638 681.75 818.457 684.54C820.989 685.975 823.08 688.077 824.502 690.616C825.924 693.156 826.622 696.037 826.522 698.946C826.522 713.732 809.073 711.196 809.073 730.851V734.909C809.097 735.94 809.385 736.947 809.909 737.835C810.433 738.723 811.175 739.462 812.066 739.981L823.2 746.398C823.535 746.594 823.916 746.699 824.304 746.701C824.693 746.703 825.075 746.602 825.412 746.409C825.749 746.216 826.029 745.938 826.224 745.602C826.419 745.266 826.522 744.884 826.522 744.496V740.793C826.522 729.228 843.971 731.561 843.971 706.554C843.971 684.844 831.544 665.899 819.091 658.722Z" fill="#FAFAFA"/>
<path d="M405.817 578.197L392.578 590.549L385.426 575.661C393.548 563.114 397.367 548.266 396.306 533.357C395.305 518.03 389.278 503.46 379.158 491.906C369.038 480.351 355.391 472.455 340.329 469.442C325.267 466.43 309.633 468.467 295.847 475.24C282.06 482.013 270.892 493.142 264.072 506.905C257.252 520.668 255.16 536.296 258.121 551.367C261.082 566.439 268.931 580.114 280.451 590.274C291.971 600.433 306.519 606.511 321.843 607.565C337.167 608.618 352.41 604.59 365.213 596.103L390.575 612.588L403.814 596.382L424.103 615.505L405.817 578.197Z" fill="white"/>
<path d="M350.782 504.851L326.612 551.339C326.265 552.002 325.744 552.558 325.105 552.947C324.466 553.336 323.733 553.543 322.985 553.546H316.644C316.023 553.55 315.408 553.411 314.849 553.14C314.289 552.869 313.8 552.474 313.417 551.984C313.035 551.493 312.77 550.922 312.644 550.313C312.517 549.705 312.532 549.075 312.688 548.473L324.608 500.793C324.925 499.541 325.651 498.432 326.672 497.642C327.692 496.851 328.948 496.425 330.238 496.43H345.633C346.627 496.423 347.605 496.672 348.474 497.155C349.342 497.637 350.071 498.336 350.589 499.184C351.107 500.032 351.398 500.999 351.431 501.992C351.465 502.985 351.241 503.97 350.782 504.851ZM325.42 569.828C325.435 571.959 324.816 574.047 323.643 575.826C322.469 577.604 320.793 578.995 318.828 579.819C316.863 580.644 314.698 580.867 312.606 580.458C310.514 580.05 308.591 579.029 307.081 577.526C305.57 576.023 304.54 574.104 304.122 572.015C303.704 569.925 303.916 567.758 304.731 565.789C305.547 563.82 306.929 562.138 308.702 560.956C310.476 559.774 312.56 559.146 314.691 559.151C316.105 559.137 317.506 559.403 318.816 559.933C320.126 560.463 321.319 561.247 322.325 562.239C323.331 563.231 324.132 564.412 324.68 565.715C325.229 567.017 325.514 568.415 325.521 569.828H325.42Z" fill="#455A64"/>
<path d="M430.418 624.077L403.915 599.197L390.879 615.124L365.213 598.487C355.08 604.92 343.505 608.729 331.532 609.57C322.136 610.257 312.696 609.081 303.756 606.108C294.816 603.135 286.552 598.425 279.438 592.248C272.309 586.135 266.47 578.662 262.264 570.266C258.057 561.87 255.567 552.72 254.939 543.35C254.041 529.212 257.339 515.123 264.418 502.852C271.497 490.58 282.042 480.673 294.73 474.372C307.419 468.071 321.685 465.658 335.74 467.434C349.795 469.211 363.013 475.098 373.734 484.358C386.575 495.447 395.031 510.76 397.575 527.535C400.119 544.309 396.583 561.441 387.607 575.839L393.161 587.48L406.4 575.154L430.418 624.077ZM365.213 593.871L390.118 610.077L403.56 593.643L417.813 607.008L405.132 581.418L391.868 593.77L383.27 575.661L383.828 574.773C392.629 561.123 396.193 544.748 393.863 528.675C391.532 512.601 383.463 497.914 371.147 487.325C361.001 478.551 348.489 472.968 335.182 471.278C321.875 469.588 308.365 471.866 296.348 477.826C284.33 483.786 274.341 493.163 267.633 504.779C260.924 516.395 257.797 529.734 258.641 543.122C259.237 551.99 261.594 560.65 265.574 568.597C269.554 576.544 275.078 583.619 281.822 589.407C288.582 595.247 296.428 599.694 304.911 602.492C313.394 605.291 322.346 606.386 331.253 605.715C343.019 604.887 354.373 601.044 364.223 594.556L365.213 593.871Z" fill="#455A64"/>
<path d="M383.169 203.524L372.39 191.604L379.111 172.177V160.307L358.517 172.177V184.072L365.593 193.38L383.169 203.524Z" fill="#263238"/>
<path d="M424.686 15.1609C424.571 13.0184 423.953 10.9332 422.882 9.07386C421.812 7.21452 420.319 5.63331 418.523 4.45814L413.451 1.56687C411.539 0.591587 409.422 0.0831299 407.275 0.0831299C405.129 0.0831299 403.012 0.591587 401.1 1.56687L323.999 46.1533C322.197 47.3226 320.696 48.9019 319.621 50.762C318.545 52.6222 317.925 54.7104 317.811 56.856V195.231C317.937 197.374 318.562 199.458 319.637 201.316C320.711 203.174 322.205 204.756 323.999 205.934L329.072 208.825C330.988 209.789 333.103 210.29 335.247 210.29C337.392 210.29 339.507 209.789 341.423 208.825L371.452 191.503C375.931 199.183 383.198 204.842 391.741 207.303C392.325 207.473 392.947 207.463 393.525 207.274C394.102 207.085 394.61 206.725 394.98 206.243C395.35 205.76 395.566 205.177 395.599 204.57C395.632 203.963 395.481 203.36 395.165 202.84C393.131 199.382 391.805 195.554 391.265 191.578C390.725 187.603 390.982 183.559 392.02 179.684L418.523 164.315C420.317 163.138 421.809 161.557 422.88 159.698C423.95 157.839 424.569 155.754 424.686 153.612V15.1609Z" fill="#37474F"/>
<path d="M317.862 195.231C317.98 197.376 318.602 199.462 319.677 201.322C320.752 203.181 322.25 204.761 324.05 205.934L329.122 208.825C330.862 209.698 332.767 210.195 334.711 210.282C336.656 210.369 338.597 210.046 340.409 209.332C337.517 210.423 335.336 208.774 335.336 205.249V66.8993C335.418 64.7482 336.047 62.6535 337.162 60.8124L319.764 50.6676C318.657 52.5111 318.038 54.6057 317.963 56.7545L317.862 195.231Z" fill="#263238"/>
<path d="M424.484 13.4362C423.773 10.9 421.389 9.96161 418.523 11.6101L341.398 56.2219C339.568 57.3373 338.07 58.9224 337.061 60.8124L319.688 50.6676C320.716 48.783 322.22 47.2003 324.05 46.0771L401.125 1.46534C403.041 0.50182 405.156 0 407.301 0C409.445 0 411.56 0.50182 413.476 1.46534L418.549 4.38197C420.109 5.40076 421.441 6.73095 422.462 8.28905C423.483 9.84715 424.172 11.5995 424.484 13.4362Z" fill="#455A64"/>
<path d="M368.383 111.536C368.402 112.077 368.298 112.615 368.078 113.109C367.919 113.578 367.618 113.986 367.216 114.276L361.028 118.333C360.894 118.438 360.729 118.495 360.559 118.495C360.388 118.495 360.223 118.438 360.089 118.333C359.935 118.199 359.814 118.03 359.735 117.841C359.656 117.652 359.621 117.447 359.633 117.243L358.694 102.305L346.013 79.6311C345.869 79.3922 345.782 79.123 345.76 78.8449C345.729 78.3989 345.816 77.9526 346.013 77.5514C346.135 77.166 346.386 76.8344 346.724 76.613L353.191 72.3522C353.833 71.9464 354.315 71.8703 354.637 72.1239C354.909 72.2874 355.128 72.525 355.271 72.8087L362.22 86.1745L367.165 64.9465C367.279 64.4583 367.44 63.9826 367.647 63.5262C367.944 62.8543 368.429 62.282 369.042 61.8777L375.509 57.6422C375.615 57.5512 375.75 57.5011 375.89 57.5011C376.03 57.5011 376.165 57.5512 376.27 57.6422C376.393 57.7544 376.491 57.8917 376.557 58.0448C376.622 58.198 376.654 58.3633 376.651 58.5299C376.64 58.8811 376.589 59.23 376.499 59.5697L367.444 96.5729L368.383 111.536Z" fill="#FAFAFA"/>
<path d="M401.176 79.0222C401.244 78.9805 401.32 78.9527 401.399 78.9404C401.478 78.928 401.559 78.9314 401.636 78.9502C401.714 78.9691 401.787 79.003 401.852 79.0502C401.917 79.0974 401.971 79.1568 402.013 79.2251C402.256 79.6096 402.346 80.0709 402.267 80.5186L401.506 88.6344C401.446 89.2038 401.274 89.7556 400.998 90.2576C400.789 90.6864 400.452 91.0405 400.035 91.2721L377.741 101.214C377.602 101.292 377.438 101.314 377.283 101.276C377.128 101.239 376.993 101.144 376.905 101.011C376.662 100.627 376.571 100.165 376.651 99.7176L381.267 50.2617C381.319 49.6909 381.492 49.1377 381.774 48.6385C381.977 48.2048 382.315 47.8487 382.738 47.6241L404.651 37.8343C404.79 37.7566 404.954 37.7343 405.109 37.7719C405.264 37.8095 405.399 37.9042 405.488 38.0372C405.73 38.4218 405.821 38.883 405.741 39.3307L404.98 47.4465C404.924 48.0166 404.751 48.5691 404.473 49.0697C404.27 49.5035 403.932 49.8595 403.509 50.0842L389.028 56.5515L388.241 64.8195L401.709 58.8087C401.778 58.7681 401.856 58.7418 401.936 58.7313C402.016 58.7208 402.097 58.7263 402.175 58.7476C402.253 58.7688 402.326 58.8053 402.389 58.855C402.453 58.9047 402.506 58.9666 402.546 59.037C402.782 59.4241 402.871 59.8828 402.799 60.3304L402.038 68.4463C401.982 69.0084 401.809 69.5526 401.531 70.0441C401.328 70.4778 400.99 70.8339 400.567 71.0585L387.049 77.0693L386.263 85.6417L401.176 79.0222Z" fill="#FAFAFA"/>
<path d="M376.904 118.815C377.044 118.738 377.207 118.715 377.363 118.753C377.518 118.79 377.653 118.885 377.741 119.018C377.984 119.403 378.074 119.864 377.995 120.312L373.785 169.59C373.737 170.162 373.564 170.716 373.278 171.213C373.083 171.644 372.754 172 372.339 172.228L366.278 174.941C366.136 175.027 365.966 175.053 365.805 175.015C365.644 174.978 365.504 174.878 365.415 174.738C365.195 174.355 365.106 173.909 365.162 173.47L366.76 154.779L356.31 159.724L354.713 178.416C354.665 178.988 354.492 179.542 354.205 180.039C354.011 180.47 353.681 180.826 353.267 181.054L347.104 183.869C346.965 183.948 346.803 183.976 346.645 183.949C346.488 183.921 346.345 183.839 346.242 183.717C346.001 183.322 345.92 182.85 346.013 182.398L350.223 133.119C350.258 132.549 350.423 131.994 350.705 131.496C350.908 131.063 351.246 130.706 351.669 130.482L357.832 127.641C357.971 127.563 358.135 127.541 358.29 127.579C358.445 127.616 358.581 127.711 358.669 127.844C358.914 128.228 359.005 128.69 358.923 129.138L357.35 147.5L367.825 142.732L369.296 124.217C369.355 123.648 369.528 123.096 369.803 122.594C369.997 122.155 370.338 121.796 370.767 121.58L376.904 118.815Z" fill="#FAFAFA"/>
<path d="M395.748 101.062C396.382 100.58 396.89 100.478 397.295 100.707C397.671 100.945 397.977 101.277 398.183 101.67L414.516 135.782C414.661 136.055 414.771 136.345 414.846 136.645C414.892 137.073 414.84 137.507 414.694 137.913C414.567 138.289 414.339 138.622 414.034 138.876L408.125 143.34C407.516 143.822 407.035 143.974 406.705 143.797C406.411 143.637 406.185 143.376 406.071 143.061L403.94 138.547L391.488 147.981L391.006 154.474C390.965 154.98 390.845 155.476 390.651 155.945C390.404 156.582 389.971 157.13 389.408 157.518L383.524 161.981C383.407 162.059 383.271 162.1 383.131 162.1C382.991 162.1 382.854 162.059 382.738 161.981C382.602 161.892 382.49 161.772 382.411 161.631C382.331 161.49 382.287 161.332 382.281 161.17C382.232 160.791 382.232 160.407 382.281 160.028L386.364 110.471C386.436 109.796 386.589 109.131 386.821 108.493C387.074 107.769 387.533 107.135 388.14 106.667L395.748 101.062ZM392.426 135.833L400.035 130.101L393.897 117.014L392.426 135.833Z" fill="#FAFAFA"/>
<path d="M1098.83 392.294C1095.44 420.015 1082.17 435.815 1065.28 443.88L1049.12 434.547C1053.21 429.232 1055.94 422.998 1057.06 416.388C1058.28 410.177 1058.42 403.802 1057.47 397.544L1082.68 382.961C1081.64 391.736 1098.83 392.294 1098.83 392.294Z" fill="#263238"/>
<path d="M1137.21 235.202V361.2C1137.07 363.835 1136.3 366.399 1134.98 368.682C1133.66 370.966 1131.81 372.904 1129.6 374.337L1098.78 392.294C1095.38 420.014 1082.12 435.815 1065.23 443.88C1074.51 432.315 1074.97 415.322 1073.57 406.877L1057.01 416.388L1035 429.069C1032.64 430.269 1030.03 430.895 1027.39 430.895C1024.74 430.895 1022.14 430.269 1019.78 429.069L1013.59 425.493C1011.38 424.054 1009.54 422.115 1008.22 419.833C1006.9 417.55 1006.13 414.989 1005.98 412.355V286.357C1006.13 283.727 1006.9 281.168 1008.22 278.89C1009.54 276.611 1011.38 274.677 1013.59 273.245L1108.17 218.539C1110.52 217.338 1113.13 216.713 1115.78 216.713C1118.42 216.713 1121.03 217.338 1123.38 218.539L1129.57 222.089C1131.79 223.521 1133.63 225.454 1134.96 227.732C1136.28 230.011 1137.05 232.57 1137.21 235.202Z" fill="#37474F"/>
<path d="M1006.16 412.355C1006.3 414.99 1007.07 417.554 1008.39 419.838C1009.71 422.121 1011.55 424.059 1013.77 425.493L1019.93 429.043C1022.07 430.119 1024.41 430.729 1026.8 430.834C1029.2 430.939 1031.58 430.536 1033.81 429.652C1030.23 431.022 1027.52 428.993 1027.52 424.58V298.683C1027.61 296.039 1028.38 293.464 1029.75 291.201L1008.42 278.926C1007.06 281.183 1006.3 283.749 1006.21 286.382L1006.16 412.355Z" fill="#263238"/>
<path d="M1136.98 233.071C1136.09 229.85 1133.15 228.81 1129.65 230.839L1035.05 285.571C1032.8 286.952 1030.95 288.903 1029.7 291.226L1008.42 278.926C1009.67 276.611 1011.51 274.663 1013.74 273.27L1108.34 218.539C1110.7 217.339 1113.31 216.713 1115.95 216.713C1118.6 216.713 1121.21 217.339 1123.56 218.539L1129.75 222.115C1131.63 223.359 1133.24 224.971 1134.48 226.854C1135.73 228.737 1136.58 230.852 1136.98 233.071Z" fill="#455A64"/>
<path d="M1076.9 376.595C1076.04 377.213 1075 377.502 1073.95 377.409C1072.9 377.316 1071.92 376.846 1071.19 376.087L1053.44 357.193C1050.47 354.048 1049.66 349.052 1052.8 342.686C1055.95 336.32 1060.56 334.367 1063.53 337.613L1075.02 349.888L1103.58 277.734C1106.24 270.987 1111.19 267.259 1114.56 269.415C1117.93 271.571 1118.51 278.799 1115.85 285.57L1082.88 368.606C1081.79 371.772 1079.77 374.532 1077.07 376.519C1077.02 376.548 1076.96 376.573 1076.9 376.595Z" fill="#FAFAFA"/>
<path d="M935.731 429.348C935.718 426.08 934.858 422.873 933.235 420.037C931.612 417.201 929.281 414.835 926.47 413.169C923.66 411.503 920.465 410.595 917.199 410.532C913.932 410.469 910.705 411.255 907.832 412.812C905.891 406.864 902.679 401.41 898.418 396.828C894.157 392.246 888.95 388.647 883.158 386.279C877.367 383.912 871.129 382.834 864.879 383.119C858.629 383.404 852.516 385.046 846.964 387.932C846.975 383.347 845.316 378.915 842.297 375.464C839.279 372.013 835.108 369.779 830.562 369.18C826.017 368.58 821.409 369.656 817.599 372.206C813.789 374.756 811.037 378.606 809.859 383.037C804.129 379.316 797.441 377.343 790.609 377.356C782.034 377.34 773.742 380.429 767.267 386.051C760.792 391.673 756.57 399.449 755.382 407.942C754.204 407.709 753.006 407.59 751.805 407.587C746.794 407.587 741.988 409.578 738.445 413.121C734.901 416.665 732.911 421.471 732.911 426.482C733.32 430.073 734.305 433.576 735.827 436.855C731.933 439.977 729.103 444.231 727.728 449.03C726.352 453.828 726.5 458.935 728.15 463.647C729.801 468.358 732.872 472.441 736.941 475.333C741.009 478.225 745.875 479.783 750.867 479.793C752.288 479.787 753.706 479.651 755.102 479.387C756.145 481.875 756.795 484.511 757.03 487.198C757.033 491.207 758.311 495.111 760.678 498.345C763.046 501.58 766.381 503.978 770.202 505.192C774.022 506.406 778.13 506.374 781.93 505.1C785.731 503.826 789.028 501.376 791.345 498.104C795.427 504.896 801.302 510.431 808.324 514.102C815.346 517.774 823.244 519.438 831.151 518.914C839.058 518.39 846.667 515.697 853.143 511.131C859.619 506.565 864.712 500.303 867.862 493.032C869.868 496.733 873.052 499.658 876.909 501.344C880.767 503.029 885.077 503.378 889.155 502.335C893.234 501.292 896.847 498.917 899.422 495.587C901.997 492.256 903.386 488.162 903.369 483.952C903.369 483.546 903.369 483.166 903.369 482.76C910.256 482.242 916.695 479.144 921.397 474.085C926.099 469.025 928.718 462.378 928.731 455.471C928.719 452.097 928.092 448.753 926.879 445.605C929.625 443.882 931.882 441.481 933.432 438.634C934.982 435.787 935.774 432.589 935.731 429.348Z" fill="white"/>
<path d="M916.836 406.42C914.514 406.421 912.206 406.771 909.989 407.46C905.187 396.359 896.298 387.532 885.163 382.81C874.028 378.088 861.503 377.833 850.185 382.098C849.04 377.611 846.558 373.579 843.068 370.536C839.578 367.493 835.245 365.583 830.645 365.06C826.044 364.537 821.393 365.426 817.309 367.609C813.225 369.791 809.902 373.164 807.78 377.279C802.593 374.767 796.919 373.42 791.156 373.331C785.393 373.242 779.681 374.414 774.418 376.765C769.156 379.116 764.471 382.588 760.692 386.94C756.913 391.292 754.131 396.417 752.541 401.957C752.389 402.388 752.237 402.92 752.059 403.58H751.755C745.692 403.586 739.876 405.989 735.577 410.265C731.278 414.541 728.843 420.342 728.802 426.406C729.026 429.575 729.772 432.686 731.009 435.612C727.033 439.536 724.315 444.555 723.2 450.028C722.084 455.502 722.623 461.184 724.747 466.351C726.871 471.518 730.484 475.936 735.126 479.043C739.769 482.15 745.23 483.806 750.817 483.8C751.324 483.8 751.806 483.8 752.288 483.8C752.649 484.918 752.87 486.077 752.947 487.249C752.903 491.655 754.135 495.979 756.494 499.7C758.853 503.421 762.238 506.38 766.242 508.219C770.245 510.059 774.695 510.7 779.055 510.066C783.415 509.433 787.499 507.551 790.813 504.647C795.168 510.396 800.804 515.051 807.272 518.241C817.851 523.465 830.001 524.539 841.332 521.253C852.663 517.968 862.353 510.56 868.496 500.488C871.524 503.416 875.302 505.45 879.414 506.363C883.526 507.277 887.81 507.035 891.793 505.665C895.775 504.294 899.301 501.849 901.98 498.599C904.659 495.348 906.386 491.42 906.97 487.249C907.145 486.116 907.23 484.971 907.224 483.825C907.224 483.217 907.224 482.633 907.224 482.025C905.901 482.351 904.551 482.563 903.192 482.659C903.23 483.046 903.23 483.437 903.192 483.825C903.186 485.146 903.05 486.462 902.786 487.756C902.05 491.223 900.352 494.412 897.888 496.959C895.424 499.506 892.292 501.307 888.851 502.157C885.411 503.007 881.8 502.87 878.434 501.763C875.067 500.656 872.08 498.623 869.815 495.898C871.282 490.663 871.696 485.189 871.033 479.793C870.688 484.322 869.564 488.758 867.71 492.905C864.56 500.176 859.468 506.438 852.991 511.004C846.515 515.57 838.906 518.263 830.999 518.787C823.093 519.312 815.194 517.647 808.172 513.975C801.15 510.304 795.275 504.769 791.193 497.977C791.193 497.977 790.381 496.202 789.468 493.666C788.359 490.78 787.51 487.801 786.932 484.764C786.177 490.1 786.842 495.541 788.86 500.539C786.211 503.153 782.848 504.925 779.194 505.631C775.54 506.337 771.759 505.945 768.327 504.504C764.896 503.064 761.967 500.64 759.912 497.537C757.856 494.435 756.765 490.793 756.777 487.072C756.539 484.384 755.889 481.749 754.849 479.26C753.453 479.524 752.035 479.66 750.614 479.666C745.622 479.656 740.756 478.098 736.687 475.206C732.619 472.314 729.547 468.231 727.897 463.52C726.247 458.809 726.099 453.702 727.474 448.903C728.849 444.104 731.679 439.85 735.574 436.728C734.031 433.455 733.037 429.951 732.632 426.355C732.632 421.359 734.613 416.567 738.141 413.03C741.669 409.493 746.455 407.499 751.451 407.486C751.773 412.105 753.209 416.578 755.635 420.522C754.647 416.367 754.474 412.061 755.128 407.841C755.931 401.892 758.228 396.244 761.806 391.424C765.383 386.605 770.125 382.771 775.586 380.28C781.048 377.79 787.051 376.725 793.036 377.185C799.021 377.645 804.792 379.615 809.809 382.91C813.302 385.329 816.458 388.204 819.193 391.457C819.193 390.848 818.026 385.877 811.001 379.714C812.724 376.149 815.526 373.216 819.01 371.331C822.493 369.446 826.481 368.705 830.408 369.213C834.336 369.721 838.005 371.452 840.894 374.16C843.783 376.869 845.747 380.418 846.507 384.305C843.038 387.006 840.344 390.576 838.696 394.652C840.994 391.907 843.759 389.589 846.863 387.805C852.414 384.92 858.528 383.277 864.778 382.992C871.028 382.707 877.266 383.785 883.057 386.153C888.849 388.52 894.056 392.119 898.317 396.701C902.577 401.283 905.79 406.737 907.731 412.685C911.653 410.533 916.211 409.842 920.595 410.735C924.978 411.628 928.903 414.048 931.669 417.564C934.436 421.079 935.866 425.462 935.704 429.933C935.542 434.404 933.799 438.672 930.785 441.978C929.593 443.302 928.208 444.439 926.677 445.351C927.185 446.636 927.592 447.959 927.894 449.308C929.487 448.49 930.977 447.485 932.332 446.315C935.804 443.222 938.249 439.144 939.339 434.624C940.43 430.105 940.114 425.36 938.435 421.024C936.755 416.689 933.792 412.97 929.941 410.365C926.09 407.759 921.536 406.392 916.887 406.446L916.836 406.42Z" fill="#455A64"/>
<path d="M820.156 519.484C823.478 524.734 819.091 539.165 804.66 538.455C824.011 543.705 838.518 530.01 839.33 518.343C839.33 518.343 834.688 520.651 820.156 519.484Z" fill="#455A64"/>
<path d="M932.332 446.315C931.932 444.883 931.423 443.485 930.811 442.13C929.618 443.454 928.233 444.591 926.702 445.503C927.211 446.788 927.618 448.111 927.919 449.46C928.338 451.402 928.55 453.383 928.554 455.369C928.55 461.564 926.447 467.576 922.587 472.422C918.727 477.268 913.338 480.662 907.3 482.05C905.977 482.376 904.627 482.588 903.268 482.684C903.306 483.072 903.306 483.463 903.268 483.851C903.262 485.171 903.126 486.488 902.862 487.782C904.267 487.716 905.666 487.546 907.047 487.274C911.508 486.455 915.748 484.708 919.493 482.148C923.237 479.588 926.403 476.27 928.786 472.41C931.169 468.55 932.716 464.234 933.327 459.739C933.938 455.244 933.599 450.671 932.332 446.315Z" fill="#455A64"/>
<path d="M812.268 427.42L805.116 469.749L787.769 470.13L784.041 448.192L780.312 468.481L762.939 469.09L755.737 427.369L770.954 426.025L773.997 451.387L778.08 426.025H790.001L794.769 451.692L797.305 426.025L812.268 427.42Z" fill="#455A64"/>
<path d="M850.565 448.242C850.562 450.053 850.349 451.857 849.931 453.619C849.505 455.3 848.883 456.926 848.08 458.463C847.266 459.953 846.278 461.34 845.138 462.597C842.825 465.123 839.858 466.958 836.565 467.898C833.204 468.849 829.649 468.88 826.272 467.988C822.895 467.096 819.819 465.313 817.366 462.825C816.2 461.633 815.194 460.295 814.373 458.844C813.546 457.371 812.899 455.804 812.446 454.177C811.986 452.474 811.756 450.717 811.761 448.952C811.763 447.19 811.985 445.435 812.421 443.728C813.234 440.396 814.864 437.32 817.163 434.775C818.297 433.517 819.593 432.417 821.018 431.503C822.441 430.581 823.986 429.864 825.609 429.373C827.299 428.839 829.062 428.574 830.833 428.587C833.585 428.549 836.32 429.022 838.899 429.982C841.227 430.83 843.342 432.178 845.094 433.931C846.847 435.683 848.195 437.798 849.043 440.126C850.057 442.712 850.573 445.465 850.565 448.242ZM836.996 449.054C836.996 448.194 836.867 447.34 836.616 446.518C836.367 445.726 835.99 444.981 835.5 444.311C835.008 443.672 834.385 443.145 833.674 442.764C832.896 442.344 832.022 442.134 831.138 442.155C830.263 442.144 829.397 442.326 828.602 442.688C827.866 443.019 827.208 443.503 826.674 444.108C826.116 444.715 825.693 445.432 825.431 446.213C825.148 447.029 825.002 447.886 825 448.75C825.011 449.607 825.13 450.459 825.355 451.286C825.594 452.113 825.971 452.893 826.471 453.594C826.944 454.291 827.568 454.872 828.297 455.293C829.073 455.722 829.947 455.941 830.833 455.927C831.709 455.924 832.574 455.734 833.37 455.369C834.117 455 834.775 454.472 835.297 453.822C835.839 453.17 836.253 452.422 836.515 451.615C836.821 450.796 836.984 449.929 836.996 449.054Z" fill="#455A64"/>
<path d="M906.742 427.42L899.59 469.749L882.242 470.13L878.514 448.192L874.786 468.481L857.438 469.09L850.235 427.369L865.453 426.025L868.521 451.387L872.605 426.025H884.525L889.217 451.742L891.753 426.025L906.742 427.42Z" fill="#455A64"/>
<path d="M107.23 696.536L98.6834 680.508L105.531 660.675V648.552L84.5314 660.675V672.798L93.5602 688.446C93.6883 688.7 93.9048 688.898 94.1689 689.004L107.23 696.536Z" fill="#2A5278"/>
<path opacity="0.2" d="M107.23 696.536L98.6834 680.508L105.531 660.675V648.552L84.5314 660.675V672.798L93.5602 688.446C93.6883 688.7 93.9048 688.898 94.1689 689.004L107.23 696.536Z" fill="black"/>
<path d="M157.422 552.1C157.315 549.915 156.695 547.787 155.611 545.888C154.527 543.988 153.01 542.371 151.183 541.169L146.111 538.201C144.147 537.201 141.974 536.68 139.77 536.68C137.566 536.68 135.394 537.201 133.43 538.201L54.8074 583.726C52.9732 584.919 51.4473 586.529 50.3542 588.424C49.261 590.32 48.6317 592.447 48.5176 594.632V681.192C48.6317 683.377 49.261 685.504 50.3542 687.4C51.4473 689.295 52.9732 690.905 54.8074 692.098L59.8798 695.065C61.8437 696.065 64.0164 696.587 66.2203 696.587C68.4241 696.587 70.5968 696.065 72.5608 695.065L97.9228 680.457L106.926 696.08C107.042 696.337 107.235 696.551 107.479 696.692C107.723 696.833 108.005 696.893 108.286 696.865C108.566 696.837 108.83 696.722 109.041 696.535C109.253 696.349 109.4 696.101 109.462 695.826L118.999 668.334L151.183 649.566C153.022 648.376 154.553 646.767 155.65 644.872C156.748 642.976 157.381 640.847 157.498 638.66L157.422 552.1Z" fill="#2A5278"/>
<path opacity="0.2" d="M48.4159 681.192C48.5301 683.377 49.1594 685.504 50.2525 687.4C51.3457 689.295 52.8716 690.905 54.7057 692.098L59.7781 695.065C61.5558 695.963 63.5039 696.472 65.4934 696.56C67.4829 696.647 69.4682 696.311 71.3178 695.573C68.3505 696.689 66.0932 695.015 66.0932 691.439V604.878C66.1717 602.687 66.7996 600.55 67.9193 598.664L50.1659 588.52C49.0381 590.402 48.4095 592.54 48.3398 594.733L48.4159 681.192Z" fill="black"/>
<path opacity="0.3" d="M157.219 550.299C156.484 547.611 154.023 546.774 151.132 548.448L72.51 594.099C70.6421 595.244 69.1107 596.863 68.0716 598.791L50.3182 588.646C51.3575 586.641 52.9056 584.944 54.8073 583.726L133.43 538.227C135.394 537.227 137.566 536.706 139.77 536.706C141.974 536.706 144.147 537.227 146.111 538.227L151.183 541.194C152.75 542.228 154.092 543.567 155.129 545.131C156.167 546.696 156.877 548.453 157.219 550.299Z" fill="white"/>
<path d="M110.603 654.283C83.5676 647.765 81.4372 625.345 89.3501 609.266C96.4261 594.86 109.335 594.302 110.73 608.302C112.201 592.654 125.136 578.426 132.161 584.766C140.125 591.918 137.868 616.824 110.603 654.283Z" fill="white"/>
<path d="M154.657 46.1279C140.226 37.9867 120.343 39.1787 98.4045 51.8343C54.2493 77.3232 18.4381 139.435 18.4381 190.311C18.4381 215.673 27.3909 233.68 41.8472 242.024L69.1621 257.748C83.6185 266.067 103.578 264.85 125.618 252.118C169.773 226.629 205.559 164.645 205.559 113.667C205.559 88.3049 196.657 70.374 182.277 62.0045C176.241 58.4792 160.77 49.5771 154.657 46.1279Z" fill="#2A5278"/>
<path opacity="0.15" d="M21.3801 163.807C19.4845 172.516 18.4985 181.398 18.4381 190.311C18.4381 215.673 27.3909 233.68 41.8472 242.024L69.1621 257.748C83.6184 266.067 103.578 264.85 125.618 252.118C133.291 247.629 140.473 242.35 147.049 236.368L21.3801 163.807Z" fill="black"/>
<path d="M182.175 192.39C196.632 167.358 205.559 139.13 205.559 113.768C205.559 62.7653 169.773 42.1206 125.618 67.6094C81.4627 93.0982 45.6769 154.982 45.6769 205.959C45.6769 256.937 81.4627 277.607 125.618 252.118C137.207 245.233 147.725 236.688 156.839 226.756L189.454 232.716C190.399 232.888 191.372 232.805 192.273 232.473C193.175 232.142 193.971 231.576 194.579 230.833C195.187 230.09 195.586 229.198 195.732 228.249C195.879 227.3 195.769 226.329 195.414 225.437L182.175 192.39Z" fill="#2A5278"/>
<path opacity="0.35" d="M182.175 192.39C196.632 167.358 205.559 139.13 205.559 113.768C205.559 62.7653 169.773 42.1206 125.618 67.6094C81.4627 93.0982 45.6769 154.982 45.6769 205.959C45.6769 256.937 81.4627 277.607 125.618 252.118C137.207 245.233 147.725 236.688 156.839 226.756L189.454 232.716C190.399 232.888 191.372 232.805 192.273 232.473C193.175 232.142 193.971 231.576 194.579 230.833C195.187 230.09 195.586 229.198 195.732 228.249C195.879 227.3 195.769 226.329 195.414 225.437L182.175 192.39Z" fill="white"/>
<path d="M132.009 184.173L121.535 190.159C121.189 190.443 120.766 190.617 120.321 190.661C119.875 190.704 119.427 190.614 119.033 190.402C118.639 190.19 118.317 189.866 118.107 189.47C117.898 189.074 117.811 188.626 117.857 188.18L113.622 109.787C113.632 108.62 113.932 107.474 114.494 106.451C115.056 105.429 115.863 104.562 116.843 103.928L136.701 92.4643C138.603 91.3484 140.049 92.236 139.922 94.4425L135.661 178.315C135.522 179.5 135.123 180.64 134.492 181.653C133.86 182.666 133.012 183.527 132.009 184.173Z" fill="#FAFAFA"/>
<path d="M126.759 226.401C120.089 230.256 116.082 225.26 116.082 218.31C116.103 214.285 117.083 210.322 118.94 206.749C120.796 203.177 123.477 200.098 126.759 197.767C133.455 193.912 137.462 198.909 137.462 205.858C137.438 209.886 136.454 213.85 134.593 217.423C132.732 220.995 130.046 224.073 126.759 226.401Z" fill="#FAFAFA"/>
<path d="M1037.86 709.775L1047.48 691.667L1039.87 669.298V655.602L1063.58 669.298V682.993L1053.44 700.746C1053.27 701.027 1053.02 701.249 1052.73 701.381L1037.86 709.775Z" fill="#2A5278"/>
<path opacity="0.2" d="M1037.86 709.775L1047.48 691.667L1039.87 669.298V655.602L1063.58 669.298V682.993L1053.44 700.746C1053.27 701.027 1053.02 701.249 1052.73 701.381L1037.86 709.775Z" fill="black"/>
<path d="M981.23 546.774C981.362 544.306 982.074 541.904 983.308 539.762C984.541 537.62 986.263 535.8 988.332 534.448L994.114 531.126C996.317 530.001 998.755 529.415 1001.23 529.415C1003.7 529.415 1006.14 530.001 1008.34 531.126L1097.11 582.458C1099.18 583.809 1100.91 585.628 1102.15 587.77C1103.38 589.911 1104.1 592.314 1104.24 594.784V692.453C1104.1 694.923 1103.38 697.326 1102.15 699.467C1100.91 701.609 1099.18 703.429 1097.11 704.779L1091.33 708.127C1089.12 709.239 1086.68 709.819 1084.21 709.819C1081.74 709.819 1079.31 709.239 1077.1 708.127L1048.57 691.616L1038.42 709.243C1038.27 709.491 1038.06 709.692 1037.8 709.823C1037.55 709.954 1037.26 710.01 1036.97 709.983C1036.69 709.956 1036.41 709.849 1036.18 709.673C1035.96 709.497 1035.78 709.26 1035.68 708.989L1024.93 677.946L988.332 656.82C986.261 655.469 984.539 653.649 983.305 651.507C982.071 649.365 981.36 646.962 981.23 644.494V546.774Z" fill="#2A5278"/>
<path opacity="0.2" d="M1104.24 692.453C1104.1 694.923 1103.38 697.326 1102.15 699.467C1100.91 701.609 1099.18 703.429 1097.11 704.779L1091.33 708.127C1089.32 709.127 1087.12 709.693 1084.88 709.789C1082.64 709.885 1080.4 709.509 1078.32 708.685C1081.66 709.953 1084.23 708.076 1084.23 704.018V606.324C1084.13 603.853 1083.41 601.446 1082.15 599.324L1102.16 587.784C1103.43 589.903 1104.15 592.312 1104.24 594.784V692.453Z" fill="black"/>
<path opacity="0.3" d="M981.459 544.745C982.296 541.727 985.035 540.763 988.332 542.665L1077.1 594.023C1079.23 595.309 1080.98 597.138 1082.17 599.324L1102.18 587.784C1100.98 585.606 1099.23 583.778 1097.11 582.483L1008.34 531.125C1006.14 530.013 1003.7 529.433 1001.23 529.433C998.757 529.433 996.321 530.013 994.114 531.125L988.332 534.473C986.547 535.627 985.016 537.133 983.835 538.899C982.653 540.665 981.844 542.655 981.459 544.745Z" fill="white"/>
<path d="M1064.39 657.276C1064.4 657.892 1064.25 658.501 1063.95 659.042C1063.66 659.583 1063.23 660.04 1062.71 660.368C1062.19 660.697 1061.59 660.886 1060.97 660.917C1060.36 660.948 1059.75 660.821 1059.19 660.548C1059.68 662.3 1059.93 664.107 1059.95 665.925C1059.95 669.298 1057.16 670.997 1053.11 668.689L1022.27 650.936V610.61C1025.58 606.996 1028.67 603.185 1031.52 599.197C1032.31 597.346 1031.52 586.516 1031.52 584.741C1031.52 583.244 1036.6 585.426 1039.79 590.701C1040.58 591.977 1041.19 593.349 1041.62 594.784C1042.47 597.586 1043.09 600.453 1043.47 603.357C1043.95 606.94 1043.73 610.583 1042.83 614.085L1061.48 624.863C1062.98 625.747 1064.23 627.017 1065.08 628.541C1066.25 630.428 1066.92 632.585 1067.03 634.805C1067.03 638.432 1065.05 639.269 1064.04 639.37C1065.17 640.413 1066.07 641.67 1066.71 643.068C1067.35 644.466 1067.7 645.977 1067.74 647.512C1067.74 650.352 1066.02 652.381 1063.2 651.417C1064.02 653.26 1064.43 655.26 1064.39 657.276Z" fill="#FAFAFA"/>
<path d="M1004.36 601.023V644.494C1004.4 645.003 1004.55 645.498 1004.81 645.938C1005.07 646.378 1005.43 646.752 1005.86 647.03L1016.26 653.041C1017.09 653.522 1017.78 653.041 1017.78 652.178V608.632C1017.73 608.121 1017.58 607.626 1017.31 607.186C1017.05 606.747 1016.69 606.373 1016.26 606.095L1005.81 600.009C1005.02 599.552 1004.36 599.933 1004.36 601.023Z" fill="#FAFAFA"/>
<path d="M924.293 149.351L772.552 61.4973C769.892 60.1472 766.95 59.4436 763.967 59.4436C760.983 59.4436 758.042 60.1472 755.382 61.4973L753.505 62.6386C751.004 64.2654 748.922 66.459 747.429 69.0413C745.935 71.6236 745.071 74.5219 744.907 77.5007V158.482C744.907 163.96 744.907 168.373 752.694 172.786L905.246 261.172C907.906 262.522 910.848 263.226 913.831 263.226C916.814 263.226 919.756 262.522 922.416 261.172L924.293 260.031C926.79 258.403 928.868 256.208 930.358 253.626C931.847 251.044 932.706 248.146 932.865 245.169V164.213C932.706 161.236 931.847 158.339 930.358 155.756C928.868 153.174 926.79 150.979 924.293 149.351Z" fill="#FAFAFA"/>
<path d="M754.012 199.949C761.773 196.246 770.396 186.659 770.396 176.717L794.211 190.691C789.349 196.206 783.122 200.343 776.155 202.69C769.188 205.036 761.726 205.507 754.519 204.057C754.07 203.967 753.661 203.738 753.349 203.402C753.038 203.066 752.84 202.641 752.784 202.186C752.727 201.731 752.816 201.27 753.036 200.869C753.257 200.467 753.598 200.145 754.012 199.949Z" fill="#FAFAFA"/>
<path d="M745.135 75.0659C746.15 71.4137 749.472 70.2471 753.429 72.5297L905.246 160.409C907.787 161.98 909.869 164.193 911.282 166.826L930.329 155.793C928.901 153.171 926.823 150.961 924.293 149.377L772.552 61.4972C769.888 60.1588 766.948 59.4618 763.967 59.4618C760.986 59.4618 758.046 60.1588 755.382 61.4972L753.48 62.6385C751.324 64.0412 749.473 65.8651 748.039 68.0006C746.605 70.1361 745.618 72.5393 745.135 75.0659Z" fill="#2A5278"/>
<path opacity="0.45" d="M745.135 75.0659C746.15 71.4137 749.472 70.2471 753.429 72.5297L905.246 160.409C907.787 161.98 909.869 164.193 911.282 166.826L930.329 155.793C928.901 153.171 926.823 150.961 924.293 149.377L772.552 61.4972C769.888 60.1588 766.948 59.4618 763.967 59.4618C760.986 59.4618 758.046 60.1588 755.382 61.4972L753.48 62.6385C751.324 64.0412 749.473 65.8651 748.039 68.0006C746.605 70.1361 745.618 72.5393 745.135 75.0659Z" fill="white"/>
<path d="M932.865 245.22C932.706 248.197 931.847 251.094 930.358 253.677C928.868 256.259 926.79 258.454 924.293 260.082L922.416 261.223C919.997 262.441 917.348 263.133 914.642 263.256C911.937 263.378 909.236 262.927 906.717 261.933C910.749 263.455 913.818 261.147 913.818 256.252V175.271C913.701 172.279 912.828 169.365 911.282 166.8L930.329 155.768C931.879 158.321 932.752 161.228 932.865 164.213V245.22Z" fill="#2A5278"/>
<path opacity="0.25" d="M932.865 245.22C932.706 248.197 931.847 251.094 930.358 253.677C928.868 256.259 926.79 258.454 924.293 260.082L922.416 261.223C919.997 262.441 917.348 263.133 914.642 263.256C911.937 263.378 909.236 262.927 906.717 261.933C910.749 263.455 913.818 261.147 913.818 256.252V175.271C913.701 172.279 912.828 169.365 911.282 166.8L930.329 155.768C931.879 158.321 932.752 161.228 932.865 164.213V245.22Z" fill="white"/>
<path d="M749.726 74.0767C750.629 74.1166 751.504 74.3968 752.262 74.8883L904.079 162.742C906.21 164.073 907.958 165.934 909.152 168.144C910.471 170.287 911.222 172.732 911.333 175.246V256.277C911.333 257.545 911.079 259.676 909.304 259.676C908.96 259.671 908.619 259.62 908.289 259.524H908.112C907.722 259.358 907.341 259.172 906.971 258.966L840.066 220.213L811.483 203.626L792.081 192.365L790.382 191.376L788.911 192.669C784.539 196.365 779.43 199.089 773.925 200.658C768.42 202.228 762.643 202.609 756.98 201.774C764.183 197.74 769.673 191.222 772.425 183.438L773.085 181.358L771.208 180.267L754.393 170.503C747.951 166.851 747.951 163.757 747.951 158.583V77.5006C747.954 76.9226 748.005 76.3458 748.103 75.776C748.56 74.0514 749.549 74.0514 749.929 74.0514L749.726 74.0767ZM749.929 71.3376C748.87 71.3372 747.844 71.7072 747.029 72.3834C746.214 73.0596 745.661 73.9995 745.465 75.0405C745.465 74.4318 745.744 73.8231 745.897 73.2144C745.441 74.5895 745.202 76.0268 745.186 77.4752V158.456C745.186 163.934 745.186 168.373 752.973 172.735L769.788 182.499C767.069 190.076 761.538 196.316 754.342 199.923C753.928 200.12 753.587 200.442 753.366 200.843C753.146 201.245 753.057 201.706 753.113 202.16C753.17 202.615 753.367 203.041 753.679 203.376C753.991 203.712 754.4 203.942 754.849 204.032C761.087 205.207 767.508 204.971 773.643 203.343C779.778 201.715 785.471 198.736 790.305 194.622L809.707 205.858L838.316 222.47L905.246 261.172C905.703 261.426 906.184 261.654 906.692 261.882C906.893 261.978 907.106 262.046 907.326 262.085C907.894 262.253 908.483 262.338 909.076 262.339C911.891 262.339 913.818 260.107 913.818 256.227V175.246C913.697 172.262 912.824 169.357 911.282 166.8C909.86 164.173 907.769 161.969 905.221 160.409L753.429 72.555C752.282 71.8223 750.96 71.4107 749.599 71.363L749.929 71.3376Z" fill="#2A5278"/>
<path d="M788.302 124.978C788.617 125.174 788.857 125.468 788.987 125.815C789.16 126.189 789.255 126.595 789.266 127.007V162.261C789.279 162.416 789.261 162.572 789.213 162.72C789.166 162.868 789.088 163.005 788.987 163.123C788.891 163.203 788.77 163.248 788.644 163.248C788.519 163.248 788.398 163.203 788.302 163.123L783.661 160.435C783.361 160.24 783.13 159.956 783.001 159.623C782.806 159.246 782.702 158.83 782.697 158.406V145.04L774.835 140.5V153.866C774.86 154.187 774.76 154.505 774.556 154.753C774.46 154.834 774.339 154.878 774.213 154.878C774.088 154.878 773.967 154.834 773.871 154.753L769.23 152.116C768.936 151.915 768.706 151.633 768.57 151.304C768.369 150.93 768.264 150.512 768.266 150.087V114.884C768.253 114.727 768.273 114.569 768.326 114.421C768.378 114.272 768.462 114.136 768.57 114.022C768.662 113.943 768.779 113.9 768.9 113.9C769.021 113.9 769.138 113.943 769.23 114.022L773.871 116.609C774.174 116.807 774.412 117.089 774.556 117.421C774.732 117.803 774.827 118.217 774.835 118.638V131.826L782.697 136.391V123.228C782.682 123.071 782.702 122.913 782.754 122.764C782.807 122.615 782.891 122.479 783.001 122.366C783.091 122.282 783.209 122.236 783.331 122.236C783.454 122.236 783.571 122.282 783.661 122.366L788.302 124.978Z" fill="#2A5278"/>
<path d="M811.99 168.145C812.293 168.342 812.531 168.625 812.675 168.956C812.851 169.338 812.946 169.753 812.954 170.174V175.956C812.967 176.111 812.949 176.267 812.901 176.415C812.853 176.563 812.776 176.701 812.675 176.818C812.581 176.904 812.459 176.951 812.332 176.951C812.206 176.951 812.083 176.904 811.99 176.818L795.2 167.13C794.892 166.928 794.653 166.636 794.516 166.293C794.339 165.92 794.244 165.514 794.237 165.101V129.873C794.215 129.561 794.315 129.252 794.516 129.011C794.611 128.93 794.733 128.886 794.858 128.886C794.983 128.886 795.104 128.93 795.2 129.011L811.711 138.547C812.013 138.756 812.251 139.046 812.396 139.384C812.574 139.756 812.669 140.163 812.675 140.576V146.359C812.695 146.679 812.596 146.995 812.396 147.246C812.298 147.322 812.177 147.364 812.053 147.364C811.929 147.364 811.809 147.322 811.711 147.246L800.78 140.931V146.815L810.925 152.674C811.233 152.876 811.472 153.168 811.609 153.511C811.786 153.884 811.881 154.29 811.889 154.703V160.485C811.914 160.806 811.814 161.124 811.609 161.373C811.514 161.453 811.392 161.498 811.267 161.498C811.142 161.498 811.021 161.453 810.925 161.373L800.78 155.514V161.627L811.99 168.145Z" fill="#2A5278"/>
<path d="M834.41 181.079C834.71 181.284 834.941 181.576 835.07 181.916C835.267 182.282 835.372 182.692 835.374 183.108V188.891C835.387 189.052 835.367 189.214 835.315 189.366C835.262 189.519 835.179 189.659 835.07 189.778C834.978 189.857 834.861 189.9 834.74 189.9C834.619 189.9 834.502 189.857 834.41 189.778L818.001 180.318C817.686 180.123 817.446 179.828 817.316 179.481C817.127 179.113 817.031 178.703 817.037 178.289V143.036C817.021 142.881 817.037 142.724 817.085 142.575C817.133 142.427 817.212 142.29 817.316 142.174C817.412 142.093 817.533 142.049 817.659 142.049C817.784 142.049 817.905 142.093 818.001 142.174L822.642 144.862C822.942 145.057 823.173 145.341 823.302 145.674C823.49 146.052 823.585 146.469 823.581 146.891V174.789L834.41 181.079Z" fill="#2A5278"/>
<path d="M855.79 193.43C856.084 193.631 856.313 193.913 856.449 194.242C856.645 194.618 856.749 195.035 856.754 195.459V201.242C856.769 201.399 856.749 201.558 856.696 201.707C856.644 201.855 856.56 201.991 856.449 202.104C856.358 202.183 856.241 202.226 856.12 202.226C855.999 202.226 855.882 202.183 855.79 202.104L839.381 192.695C839.061 192.517 838.817 192.229 838.696 191.883C838.52 191.501 838.425 191.087 838.417 190.666V155.413C838.404 155.258 838.421 155.102 838.469 154.953C838.517 154.805 838.594 154.668 838.696 154.55C838.874 154.348 839.102 154.348 839.381 154.55L844.022 157.087C844.322 157.292 844.553 157.584 844.681 157.924C844.87 158.292 844.966 158.701 844.96 159.116V187.014L855.79 193.43Z" fill="#2A5278"/>
<path d="M858.631 179.836C858.668 178.046 858.958 176.27 859.493 174.561C859.882 173.243 860.628 172.058 861.649 171.137C862.604 170.346 863.807 169.915 865.047 169.92C866.698 170.006 868.298 170.521 869.688 171.416C871.432 172.434 872.992 173.737 874.304 175.271C875.648 176.816 876.798 178.519 877.728 180.344C878.661 182.246 879.384 184.245 879.884 186.304C880.381 188.349 880.669 190.439 880.746 192.543C880.746 194.141 880.746 195.789 880.746 197.615C880.746 199.441 880.746 200.912 880.746 202.383C880.708 204.165 880.417 205.933 879.884 207.633C879.479 208.959 878.736 210.156 877.728 211.108C876.773 211.913 875.554 212.338 874.304 212.3C872.664 212.182 871.078 211.659 869.688 210.778C867.939 209.768 866.371 208.474 865.047 206.948C863.703 205.409 862.561 203.705 861.649 201.876C860.709 199.976 859.986 197.977 859.493 195.916C858.996 193.862 858.707 191.763 858.631 189.651C858.631 188.13 858.631 186.507 858.631 184.807C858.631 183.108 858.58 181.358 858.631 179.836ZM874.178 198.249C874.178 197.624 874.178 196.913 874.178 196.119C874.178 195.333 874.178 194.521 874.178 193.583C874.178 192.644 874.178 191.934 874.178 191.046C874.178 190.159 874.178 189.55 874.178 188.916C874.15 187.993 874.031 187.076 873.823 186.177C873.63 185.302 873.341 184.451 872.96 183.641C872.606 182.877 872.145 182.168 871.591 181.536C871.067 180.884 870.421 180.341 869.688 179.938C869.117 179.555 868.448 179.344 867.761 179.329C867.513 179.322 867.265 179.365 867.034 179.457C866.803 179.548 866.593 179.686 866.417 179.862C866.006 180.279 865.709 180.794 865.555 181.358C865.335 182.109 865.208 182.884 865.174 183.666C865.174 184.249 865.174 184.934 865.174 185.72C865.174 186.507 865.174 187.293 865.174 188.257C865.174 189.22 865.174 189.93 865.174 190.793C865.174 191.655 865.174 192.365 865.174 193.05C865.259 194.854 865.68 196.626 866.417 198.275C867.076 199.831 868.225 201.131 869.688 201.977C871.159 202.806 872.25 202.806 872.96 201.977C873.75 200.895 874.176 199.589 874.178 198.249Z" fill="#2A5278"/>
<path d="M890.967 209.256C890.981 209.411 890.963 209.568 890.915 209.716C890.867 209.864 890.79 210.001 890.688 210.119C890.595 210.204 890.473 210.252 890.346 210.252C890.219 210.252 890.097 210.204 890.004 210.119L885.54 207.582C885.237 207.373 885 207.083 884.855 206.745C884.682 206.371 884.587 205.966 884.576 205.553V182.043C884.563 181.888 884.581 181.732 884.628 181.584C884.676 181.435 884.753 181.298 884.855 181.181C884.949 181.095 885.071 181.048 885.197 181.048C885.324 181.048 885.446 181.095 885.54 181.181L890.004 183.717C890.306 183.926 890.543 184.216 890.688 184.554C890.865 184.927 890.96 185.333 890.967 185.746V209.256ZM890.967 220.999C890.981 221.154 890.963 221.31 890.915 221.458C890.867 221.606 890.79 221.743 890.688 221.861C890.592 221.942 890.471 221.986 890.346 221.986C890.221 221.986 890.099 221.942 890.004 221.861L885.54 219.325C885.238 219.126 885 218.844 884.855 218.513C884.679 218.131 884.584 217.717 884.576 217.296V211.793C884.563 211.637 884.581 211.481 884.628 211.333C884.676 211.185 884.753 211.048 884.855 210.93C884.949 210.845 885.071 210.797 885.197 210.797C885.324 210.797 885.446 210.845 885.54 210.93L890.004 213.466C890.306 213.675 890.543 213.966 890.688 214.303C890.862 214.677 890.957 215.083 890.967 215.495V220.999Z" fill="#2A5278"/>
<path d="M300.007 400.308L286.134 392.319C285.855 392.204 285.623 391.999 285.475 391.736L282.938 387.247L289.938 383.189H290.953L300.007 400.308Z" fill="#2A5278"/>
<path opacity="0.25" d="M300.007 400.308L286.134 392.319C285.855 392.204 285.623 391.999 285.475 391.736L282.938 387.247L289.938 383.189H290.953L300.007 400.308Z" fill="white"/>
<path d="M222.754 326.099L341.398 257.444C343.478 256.394 345.776 255.847 348.106 255.847C350.436 255.847 352.734 256.394 354.814 257.444L356.285 258.332C358.237 259.604 359.862 261.319 361.025 263.337C362.189 265.356 362.859 267.621 362.981 269.948V333.226C362.981 337.512 362.981 340.961 356.894 344.385L312.257 370.229L302.112 399.548C302.015 399.833 301.83 400.08 301.584 400.253C301.338 400.426 301.043 400.517 300.742 400.511C300.491 400.514 300.243 400.449 300.025 400.324C299.807 400.199 299.625 400.019 299.5 399.801L289.913 383.164L237.616 413.471C235.536 414.521 233.238 415.068 230.908 415.068C228.578 415.068 226.28 414.521 224.2 413.471L222.754 412.584C220.799 411.313 219.171 409.599 218.003 407.581C216.835 405.562 216.16 403.296 216.033 400.968V337.715C216.16 335.386 216.835 333.121 218.003 331.102C219.171 329.084 220.799 327.37 222.754 326.099Z" fill="#FAFAFA"/>
<path d="M362.727 268.046C361.941 265.18 359.329 264.292 356.235 266.067L237.617 334.722C235.623 335.966 233.996 337.717 232.899 339.795L218.012 331.172C219.132 329.103 220.765 327.356 222.754 326.099L341.398 257.444C343.483 256.394 345.784 255.847 348.119 255.847C350.453 255.847 352.755 256.394 354.84 257.444L356.311 258.332C357.981 259.434 359.411 260.862 360.513 262.532C361.616 264.201 362.369 266.077 362.727 268.046Z" fill="#2A5278"/>
<path opacity="0.45" d="M362.727 268.046C361.941 265.18 359.329 264.292 356.235 266.067L237.617 334.722C235.623 335.966 233.996 337.717 232.899 339.795L218.012 331.172C219.132 329.103 220.765 327.356 222.754 326.099L341.398 257.444C343.483 256.394 345.784 255.847 348.119 255.847C350.453 255.847 352.755 256.394 354.84 257.444L356.311 258.332C357.981 259.434 359.411 260.862 360.513 262.532C361.616 264.201 362.369 266.077 362.727 268.046Z" fill="white"/>
<path d="M216.033 400.993C216.16 403.322 216.835 405.587 218.003 407.606C219.171 409.624 220.799 411.338 222.754 412.609L224.2 413.496C226.091 414.451 228.162 414.995 230.278 415.091C232.394 415.187 234.506 414.834 236.475 414.054C233.33 415.246 230.921 413.446 230.921 409.616V346.338C230.997 344.001 231.669 341.722 232.874 339.718L218.012 331.095C216.796 333.096 216.115 335.375 216.033 337.715V400.993Z" fill="#2A5278"/>
<path opacity="0.25" d="M216.033 400.993C216.16 403.322 216.835 405.587 218.003 407.606C219.171 409.624 220.799 411.338 222.754 412.609L224.2 413.496C226.091 414.451 228.162 414.995 230.278 415.091C232.394 415.187 234.506 414.834 236.475 414.054C233.33 415.246 230.921 413.446 230.921 409.616V346.338C230.997 344.001 231.669 341.722 232.874 339.718L218.012 331.095C216.796 333.096 216.115 335.375 216.033 337.715V400.993Z" fill="white"/>
<path d="M359.151 267.69C359.43 267.69 359.912 267.69 360.191 268.73C360.214 269.144 360.214 269.559 360.191 269.973V333.251C360.191 337.258 360.191 339.465 355.372 342.204L310.963 368.048L310.152 368.53L309.847 369.417L300.464 396.479L292.069 381.946L290.801 379.765L288.619 381.033L236.348 411.315L235.537 411.721H235.359C235.141 411.752 234.919 411.752 234.7 411.721C233.66 411.721 233.508 410.326 233.508 409.489V346.084C233.59 344.192 234.149 342.352 235.131 340.733C236.027 339.068 237.337 337.661 238.935 336.65L357.553 268.02C358.071 267.686 358.664 267.486 359.278 267.437L359.151 267.69ZM359.278 264.901C358.211 264.944 357.172 265.258 356.26 265.814L237.616 334.722C235.626 335.97 233.999 337.719 232.899 339.795C231.688 341.797 231.007 344.075 230.921 346.414V409.819C230.921 412.837 232.417 414.587 234.649 414.587C235.104 414.58 235.556 414.512 235.993 414.384C236.158 414.349 236.32 414.298 236.475 414.232C236.865 414.066 237.246 413.88 237.616 413.674L289.913 383.392L299.5 400.004C299.625 400.222 299.807 400.402 300.025 400.527C300.243 400.652 300.491 400.716 300.742 400.714C301.04 400.718 301.331 400.626 301.573 400.453C301.815 400.28 301.995 400.033 302.087 399.75L312.231 370.432L356.818 344.563C362.854 341.139 362.93 337.69 362.93 333.403V269.948C362.916 268.81 362.728 267.681 362.372 266.6C362.499 267.082 362.626 267.564 362.702 268.046C362.549 267.235 362.118 266.503 361.484 265.976C360.85 265.448 360.052 265.158 359.227 265.154L359.278 264.901Z" fill="#2A5278"/>
<path d="M252.961 364.091C252.971 362.48 253.193 360.877 253.62 359.323C254.05 357.723 254.654 356.176 255.421 354.707C256.156 353.286 257.059 351.958 258.109 350.751C259.051 349.656 260.164 348.723 261.406 347.986C262.399 347.366 263.534 347.008 264.703 346.947C265.67 346.928 266.616 347.231 267.392 347.809C268.216 348.47 268.84 349.349 269.192 350.345C269.648 351.63 269.863 352.989 269.826 354.352C269.826 355.963 269.613 357.566 269.192 359.12C268.767 360.722 268.163 362.27 267.392 363.736C266.647 365.152 265.745 366.479 264.703 367.693C263.77 368.795 262.655 369.73 261.406 370.457C260.418 371.089 259.281 371.447 258.109 371.497C257.144 371.529 256.197 371.234 255.421 370.66C254.602 369.993 253.98 369.117 253.62 368.124C253.154 366.832 252.931 365.465 252.961 364.091Z" fill="#2A5278"/>
<path d="M285.931 345.07C285.94 343.458 286.162 341.855 286.591 340.302C287.02 338.694 287.624 337.137 288.391 335.661C289.124 334.246 290.027 332.926 291.08 331.729C292.015 330.622 293.129 329.679 294.377 328.94C295.37 328.323 296.506 327.973 297.674 327.925C298.632 327.883 299.575 328.179 300.337 328.762C301.17 329.421 301.802 330.299 302.163 331.298C302.619 332.592 302.834 333.959 302.797 335.331C302.795 336.941 302.582 338.544 302.163 340.099C301.724 341.699 301.111 343.247 300.337 344.715C299.61 346.135 298.716 347.463 297.674 348.671C296.727 349.76 295.614 350.693 294.377 351.436C293.382 352.053 292.248 352.41 291.08 352.476C290.112 352.502 289.163 352.198 288.391 351.613C287.567 350.952 286.943 350.074 286.591 349.077C286.125 347.794 285.901 346.435 285.931 345.07Z" fill="#2A5278"/>
<path d="M318.902 326.023C318.901 324.411 319.123 322.806 319.561 321.255C319.984 319.653 320.588 318.104 321.362 316.639C322.089 315.219 322.983 313.891 324.025 312.683C324.972 311.594 326.085 310.661 327.322 309.918C328.317 309.301 329.45 308.944 330.619 308.878C331.587 308.852 332.535 309.156 333.307 309.741C334.132 310.402 334.755 311.28 335.108 312.277C335.572 313.561 335.795 314.919 335.767 316.284C335.757 317.904 335.535 319.515 335.108 321.077C334.674 322.676 334.07 324.223 333.307 325.693C332.574 327.108 331.672 328.428 330.619 329.624C329.69 330.739 328.575 331.683 327.322 332.414C326.325 333.027 325.193 333.384 324.025 333.454C323.065 333.477 322.126 333.173 321.362 332.592C320.529 331.938 319.904 331.057 319.561 330.056C319.084 328.766 318.86 327.397 318.902 326.023Z" fill="#2A5278"/>
<path d="M175.175 763.72C165.233 758.064 151.588 758.927 136.498 767.651C106.064 785.176 81.5385 827.785 81.5385 862.835C81.5385 880.36 87.6761 892.661 97.5926 898.342L116.386 909.146C126.328 914.878 140.049 914.041 155.215 905.291C185.649 887.766 210.175 845.158 210.175 810.082C210.175 792.607 204.037 780.332 194.146 774.575C190.012 772.216 179.385 766.104 175.175 763.72Z" fill="#2A5278"/>
<path opacity="0.45" d="M175.175 763.72C165.233 758.064 151.588 758.927 136.498 767.651C106.064 785.176 81.5385 827.785 81.5385 862.835C81.5385 880.36 87.6761 892.661 97.5926 898.342L116.386 909.146C126.328 914.878 140.049 914.041 155.215 905.291C185.649 887.766 210.175 845.158 210.175 810.082C210.175 792.607 204.037 780.332 194.146 774.575C190.012 772.216 179.385 766.104 175.175 763.72Z" fill="white"/>
<path d="M155.215 778.405C124.781 795.93 100.23 838.563 100.23 873.614C99.9027 882.644 102.08 891.588 106.52 899.458C105.98 904.835 104.136 909.999 101.148 914.503C98.1607 919.006 94.1196 922.713 89.3754 925.301C89.0133 925.5 88.728 925.814 88.5649 926.193C88.4017 926.573 88.3701 926.996 88.4751 927.395C88.5801 927.795 88.8156 928.147 89.1441 928.398C89.4727 928.648 89.8755 928.781 90.2885 928.776C97.5227 929.025 104.68 927.222 110.933 923.577C115.819 920.596 120.047 916.652 123.361 911.986C132.339 914.167 143.32 912.189 155.215 905.341C185.65 887.816 210.175 845.208 210.175 810.133C210.175 775.057 185.548 760.803 155.215 778.405Z" fill="#FAFAFA"/>
<path d="M179.74 773.485C196.961 773.485 207.638 787.561 207.638 810.183C207.638 844.371 183.545 886.092 153.947 903.186C146.959 907.575 138.937 910.042 130.69 910.338C128.426 910.351 126.169 910.087 123.969 909.552L122.27 909.146L121.255 910.592C118.136 914.98 114.158 918.69 109.564 921.497C104.439 924.516 98.6198 926.159 92.6725 926.265C97.2504 923.397 101.108 919.516 103.949 914.921C106.79 910.325 108.537 905.139 109.056 899.762V898.9L108.6 898.164C104.434 890.689 102.39 882.217 102.69 873.665C102.69 839.477 126.784 797.756 156.407 780.662C163.416 776.254 171.466 773.778 179.74 773.485ZM179.74 770.948C171.04 771.292 162.582 773.916 155.215 778.557C124.781 796.082 100.23 838.716 100.23 873.766C99.9027 882.796 102.08 891.741 106.52 899.61C105.98 904.987 104.136 910.152 101.148 914.655C98.1607 919.159 94.1196 922.865 89.3754 925.454C89.0133 925.652 88.728 925.966 88.5649 926.346C88.4017 926.725 88.3701 927.148 88.4751 927.548C88.5801 927.947 88.8156 928.3 89.1441 928.55C89.4727 928.8 89.8755 928.933 90.2885 928.928H90.6943C97.8122 929.112 104.84 927.303 110.984 923.704C115.869 920.723 120.098 916.78 123.411 912.113C125.813 912.681 128.273 912.962 130.741 912.95C139.421 912.605 147.86 909.99 155.215 905.367C185.65 887.842 210.175 845.234 210.175 810.158C210.175 785.303 197.773 770.923 179.74 770.923V770.948Z" fill="#2A5278"/>
<path d="M124.451 862.581C124.461 861.297 124.631 860.019 124.958 858.777C125.312 857.505 125.796 856.272 126.404 855.1C126.989 853.972 127.704 852.916 128.534 851.955C129.251 851.083 130.108 850.338 131.071 849.748C131.834 849.268 132.707 848.989 133.607 848.937C134.444 848.848 135.285 849.074 135.966 849.571C136.611 850.108 137.102 850.809 137.386 851.6C137.764 852.621 137.945 853.706 137.918 854.795C137.914 856.082 137.735 857.361 137.386 858.6C137.044 859.864 136.568 861.088 135.966 862.252C135.362 863.374 134.639 864.429 133.81 865.397C133.093 866.268 132.236 867.014 131.274 867.603C130.505 868.076 129.636 868.363 128.737 868.44C127.971 868.455 127.221 868.214 126.607 867.755C125.947 867.225 125.447 866.523 125.161 865.726C124.741 864.728 124.501 863.663 124.451 862.581Z" fill="#2A5278"/>
<path d="M150.701 847.415C150.709 846.139 150.88 844.869 151.208 843.636C151.557 842.362 152.042 841.129 152.654 839.958C153.233 838.827 153.948 837.771 154.784 836.814C155.501 835.942 156.358 835.196 157.321 834.607C158.076 834.107 158.952 833.818 159.857 833.77C160.631 833.759 161.387 833.999 162.013 834.455C162.664 834.987 163.155 835.69 163.433 836.484C163.811 837.506 163.992 838.59 163.965 839.68C163.959 840.966 163.78 842.245 163.433 843.484C163.088 844.756 162.612 845.988 162.013 847.161C161.404 848.281 160.681 849.335 159.857 850.306C159.128 851.166 158.273 851.91 157.321 852.513C156.556 852.99 155.684 853.269 154.784 853.324C154.018 853.339 153.268 853.098 152.654 852.639C151.995 852.119 151.495 851.425 151.208 850.636C150.849 849.601 150.678 848.51 150.701 847.415Z" fill="#2A5278"/>
<path d="M176.951 832.274C176.96 830.989 177.131 829.711 177.458 828.469C177.807 827.195 178.292 825.963 178.903 824.792C179.489 823.664 180.204 822.609 181.034 821.647C181.751 820.776 182.608 820.03 183.57 819.441C184.333 818.961 185.206 818.681 186.106 818.629C186.872 818.592 187.626 818.826 188.237 819.288C188.891 819.824 189.39 820.524 189.682 821.317C190.051 822.341 190.224 823.425 190.189 824.513C190.192 825.798 190.022 827.078 189.682 828.317C189.333 829.591 188.848 830.824 188.237 831.995C187.651 833.122 186.936 834.178 186.106 835.14C185.389 836.011 184.532 836.757 183.57 837.346C182.801 837.819 181.933 838.106 181.034 838.183C180.267 838.198 179.518 837.957 178.903 837.498C178.244 836.968 177.743 836.266 177.458 835.469C177.101 834.443 176.929 833.361 176.951 832.274Z" fill="#2A5278"/>
<path d="M292.576 716.065C296.555 709.615 302.016 704.207 308.504 700.29C315.731 696.046 324.019 693.952 332.395 694.254C332.784 694.253 333.167 694.349 333.511 694.533C334.779 695.293 354.84 706.833 355.17 707.011C355.502 707.199 355.779 707.471 355.971 707.801C356.163 708.131 356.265 708.506 356.265 708.887C356.265 709.269 356.163 709.644 355.971 709.974C355.779 710.304 355.502 710.576 355.17 710.764C349.677 713.767 344.997 718.06 341.533 723.273C338.07 728.487 335.925 734.465 335.286 740.691L292.576 716.065Z" fill="#2A5278"/>
<path opacity="0.25" d="M292.576 716.065C296.555 709.615 302.016 704.207 308.504 700.29C315.731 696.046 324.019 693.952 332.395 694.254C332.784 694.253 333.167 694.349 333.511 694.533C334.779 695.293 354.84 706.833 355.17 707.011C355.502 707.199 355.779 707.471 355.971 707.801C356.163 708.131 356.265 708.506 356.265 708.887C356.265 709.269 356.163 709.644 355.971 709.974C355.779 710.304 355.502 710.576 355.17 710.764C349.677 713.767 344.997 718.06 341.533 723.273C338.07 728.487 335.925 734.465 335.286 740.691L292.576 716.065Z" fill="white"/>
<path d="M335.464 750.278C334.316 742.481 335.588 734.519 339.107 727.467C342.626 720.414 348.224 714.611 355.144 710.84C355.553 710.599 355.871 710.231 356.051 709.792C356.232 709.353 356.264 708.868 356.144 708.409C356.023 707.95 355.756 707.543 355.384 707.25C355.011 706.956 354.553 706.792 354.079 706.782C345.701 706.502 337.413 708.585 330.163 712.793C313.246 723.547 311.141 736.228 311.141 736.228L335.464 750.278Z" fill="#2A5278"/>
<path d="M296.152 710.08C284.638 703.536 268.812 704.551 251.338 714.645C216.186 734.935 187.679 784.289 187.679 824.894C187.679 845.183 194.806 859.411 206.32 866.082L228.055 878.585C239.57 885.204 255.472 884.266 273.022 874.121C308.174 853.832 336.681 804.452 336.681 763.847C336.681 743.558 329.579 729.38 318.116 722.71C313.322 720.022 301.022 712.946 296.152 710.08Z" fill="#2A5278"/>
<path opacity="0.15" d="M296.152 710.08C284.638 703.536 268.812 704.551 251.338 714.645C216.186 734.935 187.679 784.289 187.679 824.894C187.679 845.183 194.806 859.411 206.32 866.082L228.055 878.585C239.57 885.204 255.472 884.266 273.022 874.121C308.174 853.832 336.681 804.452 336.681 763.847C336.681 743.558 329.579 729.38 318.116 722.71C313.322 720.022 301.022 712.946 296.152 710.08Z" fill="black"/>
<path d="M318.027 826.686C342.889 783.623 342.895 737.081 318.04 722.73C293.184 708.38 252.88 731.657 228.018 774.72C203.155 817.783 203.149 864.326 228.005 878.676C252.86 893.026 293.164 869.75 318.027 826.686Z" fill="#2A5278"/>
<path d="M270.511 771.811C270.671 771.676 270.873 771.603 271.082 771.603C271.291 771.603 271.493 771.676 271.653 771.811C271.82 772.01 271.946 772.24 272.025 772.488C272.103 772.736 272.132 772.997 272.109 773.256V831.817C272.106 832.51 271.95 833.194 271.653 833.821C271.411 834.377 271.015 834.852 270.511 835.19L262.903 839.628C262.749 839.766 262.551 839.842 262.345 839.842C262.139 839.842 261.94 839.766 261.787 839.628C261.617 839.431 261.489 839.201 261.41 838.952C261.332 838.704 261.305 838.442 261.33 838.183V815.991L248.243 823.6V845.817C248.237 846.502 248.082 847.177 247.787 847.795C247.568 848.358 247.178 848.837 246.671 849.165L239.062 853.628C238.9 853.758 238.699 853.829 238.492 853.829C238.284 853.829 238.083 853.758 237.921 853.628C237.748 853.422 237.619 853.184 237.541 852.927C237.462 852.67 237.436 852.399 237.465 852.132V793.47C237.47 792.777 237.626 792.093 237.921 791.466C238.155 790.905 238.553 790.428 239.062 790.097L246.671 785.633C246.829 785.505 247.026 785.436 247.229 785.436C247.432 785.436 247.629 785.505 247.787 785.633C247.954 785.832 248.081 786.062 248.159 786.31C248.237 786.558 248.266 786.819 248.243 787.078V808.991L261.33 801.383V779.521C261.336 778.836 261.492 778.161 261.787 777.542C262.005 776.98 262.396 776.5 262.903 776.173L270.511 771.811Z" fill="white"/>
<path d="M281.949 828.672C281.796 828.81 281.597 828.885 281.391 828.885C281.186 828.885 280.987 828.81 280.833 828.672C280.657 828.479 280.522 828.25 280.439 828.001C280.356 827.752 280.326 827.488 280.352 827.227V768.59C280.354 767.894 280.519 767.207 280.833 766.586C281.058 766.027 281.447 765.549 281.949 765.217L289.558 760.753C289.714 760.621 289.912 760.548 290.116 760.548C290.32 760.548 290.518 760.621 290.674 760.753C290.846 760.95 290.977 761.179 291.06 761.427C291.142 761.676 291.175 761.938 291.156 762.199V820.759C291.141 821.446 290.977 822.121 290.674 822.738C290.463 823.305 290.071 823.786 289.558 824.107L281.949 828.672Z" fill="white"/>
<path d="M309.543 790.782C309.54 791.475 309.384 792.159 309.087 792.785C308.862 793.344 308.473 793.822 307.971 794.155L300.54 798.441C300.386 798.578 300.188 798.654 299.982 798.654C299.776 798.654 299.577 798.578 299.424 798.441C299.256 798.242 299.13 798.012 299.052 797.764C298.973 797.516 298.945 797.254 298.967 796.995V757.836C298.973 757.151 299.129 756.476 299.424 755.858C299.649 755.293 300.038 754.807 300.54 754.463L307.971 750.202C308.124 750.065 308.323 749.989 308.529 749.989C308.735 749.989 308.933 750.065 309.087 750.202C309.254 750.402 309.381 750.632 309.459 750.88C309.537 751.128 309.566 751.389 309.543 751.648V790.782ZM309.543 810.285C309.537 810.97 309.382 811.645 309.087 812.263C308.87 812.833 308.48 813.321 307.971 813.658L300.54 817.919C300.386 818.056 300.188 818.132 299.982 818.132C299.776 818.132 299.577 818.056 299.424 817.919C299.256 817.72 299.13 817.49 299.052 817.242C298.973 816.994 298.945 816.732 298.967 816.473V807.318C298.976 806.625 299.132 805.942 299.424 805.314C299.657 804.76 300.045 804.285 300.54 803.944L307.971 799.684C308.124 799.546 308.323 799.471 308.529 799.471C308.735 799.471 308.933 799.546 309.087 799.684C309.254 799.883 309.381 800.113 309.459 800.361C309.537 800.609 309.566 800.87 309.543 801.129V810.285Z" fill="white"/>
<path d="M1071.16 131.547L1070.5 106.971C1070.5 106.971 1111.51 108.214 1104.54 57.211C1101.14 32.3816 1082.02 6.89278 1008.16 16.6318C918.992 28.2476 929.542 73.1637 938.825 88.8628C948.437 105.272 987.596 113.92 1051.89 110.344L1071.16 131.547Z" fill="#E0E0E0"/>
<path d="M139.263 360.084L117.223 380.805C100.861 378.161 84.2475 377.43 67.7165 378.624C23.5359 381.16 -1.36953 400.486 5.19923 426.811C12.96 457.728 41.2133 467.391 93.9662 465.26C159.907 462.724 183.545 420.877 137.589 387.297L139.263 360.084Z" fill="#E0E0E0"/>
<path d="M955.006 804.401L956.503 831.259C956.503 831.259 931.293 833.795 916.532 844.929C893.022 862.683 896.243 908.512 923.304 926.367C954.88 947.29 1035.73 945.388 1060.39 924.794C1084.17 904.885 1082.68 860.806 1064.37 844.524C1041.01 823.727 986.379 828.951 986.379 828.951L955.006 804.401Z" fill="#E0E0E0"/>
</svg>
