<svg width="80" height="80" viewBox="0 0 80 80" fill="none" xmlns="http://www.w3.org/2000/svg">
<path d="M43.9667 20H22.6334C21.7667 20 20.9334 20.0333 20.1334 20.1333C11.1667 20.9 6.66675 26.2 6.66675 35.9667V49.3C6.66675 62.6333 12.0001 65.2667 22.6334 65.2667H23.9667C24.7001 65.2667 25.6667 65.7667 26.1001 66.3333L30.1001 71.6667C31.8667 74.0333 34.7334 74.0333 36.5001 71.6667L40.5001 66.3333C41.0001 65.6667 41.8001 65.2667 42.6334 65.2667H43.9667C53.7334 65.2667 59.0334 60.8 59.8001 51.8C59.9001 51 59.9334 50.1667 59.9334 49.3V35.9667C59.9334 25.3333 54.6001 20 43.9667 20ZM21.6667 46.6667C19.8001 46.6667 18.3334 45.1667 18.3334 43.3333C18.3334 41.5 19.8334 40 21.6667 40C23.5001 40 25.0001 41.5 25.0001 43.3333C25.0001 45.1667 23.5001 46.6667 21.6667 46.6667ZM33.3001 46.6667C31.4334 46.6667 29.9667 45.1667 29.9667 43.3333C29.9667 41.5 31.4667 40 33.3001 40C35.1334 40 36.6334 41.5 36.6334 43.3333C36.6334 45.1667 35.1667 46.6667 33.3001 46.6667ZM44.9667 46.6667C43.1001 46.6667 41.6334 45.1667 41.6334 43.3333C41.6334 41.5 43.1334 40 44.9667 40C46.8001 40 48.3001 41.5 48.3001 43.3333C48.3001 45.1667 46.8001 46.6667 44.9667 46.6667Z" fill="white"/>
<path d="M73.2666 22.6332V35.9665C73.2666 42.6332 71.1999 47.1665 67.0666 49.6665C66.0666 50.2665 64.8999 49.4665 64.8999 48.2998L64.9333 35.9665C64.9333 22.6332 57.2999 14.9998 43.9666 14.9998L23.6666 15.0332C22.4999 15.0332 21.6999 13.8665 22.2999 12.8665C24.7999 8.73317 29.3333 6.6665 35.9666 6.6665H57.2999C67.9333 6.6665 73.2666 11.9998 73.2666 22.6332Z" fill="#6FCDB4"/>
</svg>
