<svg width="96" height="96" viewBox="0 0 96 96" fill="none" xmlns="http://www.w3.org/2000/svg">
<path opacity="0.4" d="M12 88H84" stroke="#6FCDB4" stroke-width="6" stroke-linecap="round" stroke-linejoin="round"/>
<path d="M22.3999 33.5195H16C13.8 33.5195 12 35.3195 12 37.5195V71.9995C12 74.1995 13.8 75.9995 16 75.9995H22.3999C24.5999 75.9995 26.3999 74.1995 26.3999 71.9995V37.5195C26.3999 35.3195 24.5999 33.5195 22.3999 33.5195Z" stroke="#6FCDB4" stroke-width="6" stroke-linecap="round" stroke-linejoin="round"/>
<path d="M51.1997 20.7598H44.7998C42.5998 20.7598 40.7998 22.5598 40.7998 24.7598V71.9998C40.7998 74.1998 42.5998 75.9998 44.7998 75.9998H51.1997C53.3997 75.9998 55.1997 74.1998 55.1997 71.9998V24.7598C55.1997 22.5598 53.3997 20.7598 51.1997 20.7598Z" stroke="#6FCDB4" stroke-width="6" stroke-linecap="round" stroke-linejoin="round"/>
<path d="M79.9995 8H73.5996C71.3996 8 69.5996 9.8 69.5996 12V72C69.5996 74.2 71.3996 76 73.5996 76H79.9995C82.1995 76 83.9995 74.2 83.9995 72V12C83.9995 9.8 82.1995 8 79.9995 8Z" stroke="#6FCDB4" stroke-width="6" stroke-linecap="round" stroke-linejoin="round"/>
</svg>
